<?xml version="1.0" encoding="UTF-8"?>
<svg width="27px" height="30px" viewBox="0 0 27 30" version="1.1" xmlns="http://www.w3.org/2000/svg" xmlns:xlink="http://www.w3.org/1999/xlink">
    <!-- Generator: Sketch 48.1 (47250) - http://www.bohemiancoding.com/sketch -->
    <title>icon-inquire</title>
    <desc>Created with Sketch.</desc>
    <defs></defs>
    <g id="主界面" stroke="none" stroke-width="1" fill="none" fill-rule="evenodd" transform="translate(-1192.000000, -373.000000)" opacity="0.6">
        <g id="icon-inquire" transform="translate(1192.000000, 373.000000)" fill="#706ACA" fill-rule="nonzero">
            <path d="M2.38,30 C0.3925,30 0.1,29.5425 0.1,27.75 L0.025,2.25 C0.025,0.5025 0.265,0 2.305,0 L23.8,0 C25.51,0 26.05,0.7725 26.05,2.25 L26.05,15.3 C26.05,16.2 24.7,16.2 24.7,15.3 L24.7,2.16 C24.7,1.695 24.3625,1.35 23.845,1.35 L2.275,1.35 C1.81,1.35 1.45,1.7025 1.45,2.16 L1.45,27.8325 C1.45,28.2975 1.765,28.6425 2.275,28.6425 L13.3,28.6425 C14.275,28.6425 14.35,29.9925 13.3,29.9925 L2.38,29.9925 L2.38,30 Z M16.0975,14.0925 C8.0125,14.0475 8.02,26.0925 16.0225,26.0925 C24.07,26.0925 23.9575,14.1375 16.0975,14.0925 Z M16.0225,24.7725 C9.6325,24.855 9.7975,15.3225 16.0225,15.3225 C22.3,15.3225 22.33,24.69 16.0225,24.7725 Z M23.2019737,28.4869737 L20.4869737,25.7119737 C20.0894737,25.3144737 20.1269737,24.7444737 20.4119737,24.4594737 C20.6819737,24.1894737 21.2594737,24.1369737 21.6644737,24.5344737 L24.4619737,27.3319737 C24.9269737,27.7969737 24.9269737,28.3369737 24.6119737,28.6594737 C24.2444737,29.0344737 23.6969737,28.9744737 23.2019737,28.4869737 Z M20.4325,6.525 L4.87,6.525 C4.345,6.525 4,6.27 4,5.73 C4,5.1825 4.4875,5.025 4.87,5.025 L20.6275,5.025 C21.055,5.025 21.4075,5.3775 21.3925,5.805 C21.385,6.36 20.995,6.525 20.4325,6.525 Z M11.995,11.775 L4.9975,11.775 C4.3975,11.775 4,11.475 4,11.025 C4,10.575 4.3975,10.275 4.9975,10.275 L11.995,10.275 C12.595,10.275 12.9925,10.575 12.9925,11.025 C13,11.475 12.595,11.775 11.995,11.775 Z M7.0375,17.025 L5.0125,17.025 C4.405,17.025 4,16.725 4,16.275 C4,15.825 4.405,15.525 5.0125,15.525 L7.0375,15.525 C7.645,15.525 8.05,15.825 8.05,16.275 C8.05,16.725 7.645,17.025 7.0375,17.025 Z" id="Shape"></path>
        </g>
    </g>
</svg>