<?xml version="1.0" encoding="UTF-8"?>
<svg width="28px" height="31px" viewBox="0 0 28 31" version="1.1" xmlns="http://www.w3.org/2000/svg" xmlns:xlink="http://www.w3.org/1999/xlink">
    <!-- Generator: Sketch 48.1 (47250) - http://www.bohemiancoding.com/sketch -->
    <title>icon-conduct</title>
    <desc>Created with Sketch.</desc>
    <defs></defs>
    <g id="主界面" stroke="none" stroke-width="1" fill="none" fill-rule="evenodd" transform="translate(-1331.000000, -372.000000)" opacity="0.5">
        <g id="icon-conduct" transform="translate(1331.000000, 372.000000)" fill="#F65D73" fill-rule="nonzero">
            <path d="M14.2660292,24.9369111 L15.2389402,25.9098221 C15.5225605,26.2034757 15.5185044,26.670253 15.2298238,26.9589335 C14.9411433,27.2476141 14.474366,27.2516702 14.1807124,26.9680499 L11.4064194,24.1937568 L14.1807124,21.4194638 C14.474366,21.1358435 14.9411433,21.1398996 15.2298238,21.4285801 C15.5185044,21.7172607 15.5225605,22.1840379 15.2389402,22.4776916 L14.2787519,23.4378799 C17.9533473,23.2645732 20.8092089,20.1750946 20.6936464,16.4982302 C20.5780839,12.8213657 17.5338482,9.91732505 13.8556221,9.97511484 C10.1773961,10.0329046 7.22589297,13.0311463 7.22589579,16.7098263 C7.22589579,17.1231524 6.8908288,17.4582194 6.47750273,17.4582194 C6.06417666,17.4582194 5.72910967,17.1231524 5.72910967,16.7098263 C5.72910967,12.1633385 9.41494547,8.47750271 13.9614333,8.47750275 C18.5079211,8.47750278 22.1937568,12.1633385 22.1937568,16.7098263 C22.1937568,21.1545327 18.6710708,24.776755 14.2660292,24.9369111 Z M6.47750275,2.48886152 C6.47750275,1.66263559 7.1495597,0.993572198 7.96680491,0.993572198 L19.9560616,0.993572198 C20.7777972,0.993572198 21.4453638,1.66562918 21.4453638,2.48886152 L21.4453638,3.98864119 C21.4449603,4.81196474 20.7793769,5.4802238 19.9560616,5.48393051 L7.96680491,5.48393051 C7.14506934,5.48393051 6.47750275,4.81187356 6.47750275,3.98864119 L6.47750275,2.48886152 Z M7.97428883,3.98714443 L19.9485777,3.98714443 L19.9485777,2.49035831 L7.97428883,2.49035831 L7.97428883,3.98714443 Z M4.28471109,2.49035831 L4.28471109,3.98714443 L1.99013799,3.98714443 C1.98789281,3.98714443 1.98714443,29.4287662 1.98714443,29.4287662 C1.98714443,29.4325082 25.9357221,29.4325082 25.9357221,29.4325082 C25.9372189,29.4325082 25.9357221,3.99088637 25.9357221,3.99088637 C25.9357221,3.98789281 23.7107495,3.98714443 23.7107495,3.98714443 L23.7107495,2.49035831 L25.9312317,2.49035831 C26.7604513,2.49035831 27.4325082,3.1594217 27.4325082,3.99088637 L27.4325082,29.4287662 C27.4325082,30.2572373 26.7664384,30.9292943 25.9357221,30.9292943 L1.98714443,30.9292943 C1.58952288,30.9292956 1.20824129,30.7710853 0.92743163,30.4895737 C0.646621968,30.208062 0.489364258,29.8263865 0.490358315,29.4287662 L0.490358315,3.99088637 C0.490358315,3.16241526 1.1609185,2.49035831 1.99013799,2.49035831 L4.28471109,2.49035831 Z" id="Shape"></path>
        </g>
    </g>
</svg>