<?xml version="1.0" encoding="UTF-8"?>
<svg width="30px" height="30px" viewBox="0 0 30 30" version="1.1" xmlns="http://www.w3.org/2000/svg" xmlns:xlink="http://www.w3.org/1999/xlink">
    <!-- Generator: Sketch 48.1 (47250) - http://www.bohemiancoding.com/sketch -->
    <title>icon-deposit</title>
    <desc>Created with Sketch.</desc>
    <defs></defs>
    <g id="主界面" stroke="none" stroke-width="1" fill="none" fill-rule="evenodd" transform="translate(-1193.000000, -511.000000)" opacity="0.6">
        <g id="icon-deposit" transform="translate(1193.000000, 511.000000)" fill="#33BFA3" fill-rule="nonzero">
            <path d="M29.4503875,9.4243125 C29.0960875,9.0483375 28.6253875,8.93642499 28.1253875,8.93642499 L3.1252875,8.93642499 C2.62431249,8.93642499 2.1522375,8.65819998 1.79979999,8.2833 C1.44462498,7.90635 1.250775,7.33545 1.250775,6.8043 C1.250775,6.27246249 1.44462501,5.8204125 1.798725,5.4444375 C2.1522375,5.0684625 2.62431249,4.95654999 3.1252875,4.95654999 L8.12548749,4.95654999 C8.47041249,4.95654999 8.7502875,4.65938748 8.7502875,4.2935625 C8.7502875,3.92754999 8.47040001,3.62949999 8.12548749,3.62949999 L3.1252875,3.62949999 C2.29062501,3.62949999 1.50556251,3.903525 0.91434999,4.530675 C0.32480001,5.15653749 9.99902344e-05,5.91943749 9.99902344e-05,6.8043 C9.99902344e-05,6.85235001 0.0108375,6.89833749 0.0128874902,6.9463875 L9.99902344e-05,6.9463875 L9.99902344e-05,25.9923875 C9.99902344e-05,26.8795 0.32481249,27.80645 0.9143625,28.432425 C1.50557499,29.059375 2.29063749,29.4984375 3.12530001,29.4984375 L28.1254,29.4984375 C28.6254,29.4984375 29.097275,29.196675 29.4504,28.8207 C29.803525,28.444725 30,27.8507875 30,27.3183625 L30,10.7361375 C30,10.2042 29.805475,9.79922499 29.4503875,9.4243125 Z M28.7503875,27.3195375 C28.7503875,27.4963 28.68515,27.757425 28.5664,27.882425 C28.4480375,28.0084 28.2910125,28.1712875 28.1253875,28.1712875 L3.1252875,28.1712875 C2.62431249,28.1712875 2.1522375,27.8707 1.798725,27.4941375 C1.44462501,27.1191375 1.250775,26.5244125 1.250775,25.992375 L1.250775,9.50038749 C1.79071251,9.95614998 2.43740001,10.263275 3.1252875,10.263275 L28.1253875,10.263275 C28.2910125,10.263275 28.44805,10.2373 28.5664,10.3623 C28.683975,10.4873 28.7503875,10.559375 28.7503875,10.736125 L28.7503875,27.3195375 Z M24.874225,4.955475 L24.999225,4.955475 C25.1668,4.955475 25.32345,4.9296 25.4414125,5.055675 C25.5593875,5.18146251 25.6246125,5.25245001 25.6246125,5.42949999 L25.6246125,6.41953749 C25.6246125,6.7853625 25.9043,7.08339999 26.2504,7.08339999 C26.595325,7.08339999 26.874625,6.78642498 26.874625,6.41953749 L26.874625,5.42949999 C26.874625,4.89756249 26.6804875,4.49248749 26.3258,4.11758748 C25.9711125,3.74171247 25.5000125,3.62949999 24.9992375,3.62949999 L24.8742375,3.62949999 C24.5281375,3.62949999 24.2492375,3.9266625 24.2492375,4.2935625 C24.2492375,4.6604625 24.528125,4.955475 24.874225,4.955475 Z M9.02743749,8.0043 L18.405075,1.89766251 C18.5609375,1.81572501 18.7371125,1.80665001 18.8996125,1.8696375 C19.0629,1.93370001 19.18985,2.063775 19.25665,2.23359999 L22.211725,7.67237499 L23.3632875,7.15733748 L20.4086,1.71768747 C20.2089875,1.21466247 19.8168,0.816812461 19.3336,0.62588748 C18.85,0.43467498 18.3078125,0.465637471 17.846875,0.708599971 L8.47100001,6.81444999 L9.02743749,8.0043 Z M24.749225,23.3959 L18.75,23.3959 C18.33555,23.3959 18,23.7377 18,24.159575 C18,24.580475 18.33555,24.9228625 18.75,24.9228625 L24.749225,24.9228625 C25.163675,24.9228625 25.4996125,24.580475 25.4996125,24.159575 C25.4996125,23.736725 25.163675,23.3959 24.749225,23.3959 Z" id="Shape"></path>
        </g>
    </g>
</svg>