<?xml version="1.0" encoding="UTF-8"?>
<svg width="27px" height="31px" viewBox="0 0 27 31" version="1.1" xmlns="http://www.w3.org/2000/svg" xmlns:xlink="http://www.w3.org/1999/xlink">
    <!-- Generator: Sketch 48.1 (47250) - http://www.bohemiancoding.com/sketch -->
    <title>icon-close</title>
    <desc>Created with Sketch.</desc>
    <defs></defs>
    <g id="主界面" stroke="none" stroke-width="1" fill="none" fill-rule="evenodd" transform="translate(-1337.000000, -511.000000)">
        <g id="icon-close" transform="translate(1338.000000, 512.000000)">
            <path d="M21.2,18.1714286 L21.2,17 L21.9142857,17 L21.9142857,18.1714286 C22.7428571,18.2285714 23.4285714,18.4714286 23.9428571,18.9 C24.5142857,19.3857143 24.8714286,20.1285714 25.0142857,21.1285714 L23.8714286,21.1285714 C23.7714286,20.4428571 23.5142857,19.9428571 23.1142857,19.6142857 C22.8,19.3571429 22.4,19.2142857 21.9142857,19.1571429 L21.9142857,22.9 C22.7714286,23.2142857 23.3571429,23.4285714 23.6714286,23.5571429 C24.6714286,24.0857143 25.1857143,24.8428571 25.1857143,25.8428571 C25.1857143,26.8428571 24.8285714,27.6 24.1285714,28.1 C23.5571429,28.4857143 22.8285714,28.7 21.9142857,28.7428571 L21.9142857,30 L21.2,30 L21.2,28.7428571 C20.2428571,28.6857143 19.5142857,28.3857143 19,27.8571429 C18.4285714,27.2857143 18.1,26.4428571 18,25.3 L19.1571429,25.3 C19.2428571,26.1571429 19.4714286,26.7714286 19.8428571,27.1571429 C20.1571429,27.4857143 20.6142857,27.6857143 21.2,27.7428571 L21.2,23.7857143 C20.6857143,23.5857143 20.1857143,23.4 19.6857143,23.2285714 C18.6571429,22.7142857 18.1571429,21.9571429 18.1571429,20.9571429 C18.1571429,20.0285714 18.4857143,19.3142857 19.1714286,18.8285714 C19.7,18.4285714 20.3714286,18.2 21.2,18.1714286 Z M21.9142857,24.0428571 L21.9142857,27.7428571 C22.5142857,27.7 23.0142857,27.5428571 23.3857143,27.2571429 C23.8,26.9285714 24.0142857,26.4714286 24.0142857,25.8714286 C24.0142857,25.1714286 23.5,24.6285714 22.5,24.2428571 C22.3,24.1714286 22.1,24.1 21.9142857,24.0428571 Z M21.2,22.6428571 L21.2,19.1571429 C20.6857143,19.1857143 20.2714286,19.3285714 19.9714286,19.5571429 C19.5428571,19.8571429 19.3285714,20.3285714 19.3285714,20.9571429 C19.3285714,21.6 19.8285714,22.1142857 20.8428571,22.5142857 L21.2,22.6428571 Z" id="$" fill="#86C8FB"></path>
            <path d="M15.0068359,29 L1,29 C0.44771525,29 1.78657678e-16,28.5522847 1.11022302e-16,28 L0,1 C-6.76353751e-17,0.44771525 0.44771525,0 1,0 L24,0 C24.5522847,0 25,0.44771525 25,1 L25,16.6479492" id="Rectangle-12" stroke="#86C8FB" stroke-width="1.2"></path>
            <rect id="Rectangle-13" fill="#86C8FB" x="3" y="17" width="8" height="1"></rect>
            <rect id="Rectangle-13-Copy" fill="#86C8FB" x="3" y="23" width="9" height="1"></rect>
            <rect id="Rectangle-13-Copy-2" fill="#86C8FB" x="3" y="5" width="19" height="1"></rect>
            <rect id="Rectangle-13-Copy-3" fill="#86C8FB" x="3" y="11" width="19" height="1"></rect>
        </g>
    </g>
</svg>