<?xml version="1.0" encoding="UTF-8"?>
<svg width="17px" height="26px" viewBox="0 0 17 26" version="1.1" xmlns="http://www.w3.org/2000/svg" xmlns:xlink="http://www.w3.org/1999/xlink">
    <!-- Generator: Sketch 48.1 (47250) - http://www.bohemiancoding.com/sketch -->
    <title>left-side</title>
    <desc>Created with Sketch.</desc>
    <defs></defs>
    <g id="主界面" stroke="none" stroke-width="1" fill="none" fill-rule="evenodd" transform="translate(-224.000000, -79.000000)">
        <g id="左侧导航" transform="translate(0.000000, 64.000000)" stroke="#7FA3CF">
            <g id="left-side">
                <g transform="translate(224.000000, 15.000000)">
                    <path d="M6.5,1.3992704 L6.5,24.3813286 C6.5,24.6574709 6.72385763,24.8813286 7,24.8813286 L16,24.8813286 C16.2761424,24.8813286 16.5,24.6574709 16.5,24.3813286 L16.5,1.3992704 C16.5,1.12312803 16.2761424,0.899270403 16,0.899270403 L7,0.899270403 C6.72385763,0.899270403 6.5,1.12312803 6.5,1.3992704 Z" id="Rectangle"></path>
                    <path d="M9.5,12.5 L0.5,12.5" id="Line-2" stroke-linecap="round" stroke-linejoin="round"></path>
                    <path d="M0.5,12.5 L2.5,10.5" id="Line-3" stroke-linecap="round" stroke-linejoin="round"></path>
                    <path d="M0.5,14.5 L2.5,12.5" id="Line-3-Copy" stroke-linecap="round" stroke-linejoin="round" transform="translate(1.500000, 13.500000) scale(1, -1) translate(-1.500000, -13.500000) "></path>
                </g>
            </g>
        </g>
    </g>
</svg>