<?xml version="1.0" encoding="UTF-8"?>
<svg width="17px" height="26px" viewBox="0 0 17 26" version="1.1" xmlns="http://www.w3.org/2000/svg" xmlns:xlink="http://www.w3.org/1999/xlink">
    <!-- Generator: Sketch 48.1 (47250) - http://www.bohemiancoding.com/sketch -->
    <title>right-side</title>
    <desc>Created with Sketch.</desc>
    <defs></defs>
    <g id="左侧导航" stroke="none" stroke-width="1" fill="none" fill-rule="evenodd" transform="translate(-207.000000, -15.000000)">
        <g fill="#7FA3CF" fill-rule="nonzero" id="right-side">
            <g transform="translate(215.500000, 28.000000) scale(-1, 1) translate(-215.500000, -28.000000) translate(207.000000, 15.000000)">
                <path d="M6,16.5675236 L7,16.5675236 L7,24.3813286 L16,24.3813286 L16,1.3992704 L7,1.3992704 L7,9.55795374 L6,9.55795374 L6,1.3992704 C6,0.846985654 6.44771525,0.399270403 7,0.399270403 L16,0.399270403 C16.5522847,0.399270403 17,0.846985654 17,1.3992704 L17,24.3813286 C17,24.9336133 16.5522847,25.3813286 16,25.3813286 L7,25.3813286 C6.44771525,25.3813286 6,24.9336133 6,24.3813286 L6,16.5675236 Z M0.146446609,12.8535534 C0.0559644063,12.7630712 0,12.6380712 0,12.5 C0,12.3619288 0.0559644063,12.2369288 0.146446609,12.1464466 L2.14644661,10.1464466 C2.34170876,9.95118446 2.65829124,9.95118446 2.85355339,10.1464466 C3.04881554,10.3417088 3.04881554,10.6582912 2.85355339,10.8535534 L1.70710678,12 L9.5,12 C9.77614237,12 10,12.2238576 10,12.5 C10,12.7761424 9.77614237,13 9.5,13 L1.70710678,13 L2.85355339,14.1464466 C3.04881554,14.3417088 3.04881554,14.6582912 2.85355339,14.8535534 C2.65829124,15.0488155 2.34170876,15.0488155 2.14644661,14.8535534 L0.146446609,12.8535534 Z M6,16.5675236 L7,16.5675236 L7,24.3813286 L16,24.3813286 L16,1.3992704 L7,1.3992704 L7,9.55795374 L6,9.55795374 L6,1.3992704 C6,0.846985654 6.44771525,0.399270403 7,0.399270403 L16,0.399270403 C16.5522847,0.399270403 17,0.846985654 17,1.3992704 L17,24.3813286 C17,24.9336133 16.5522847,25.3813286 16,25.3813286 L7,25.3813286 C6.44771525,25.3813286 6,24.9336133 6,24.3813286 L6,16.5675236 Z" id="Combined-Shape-Copy"></path>
            </g>
        </g>
    </g>
</svg>