<?xml version="1.0" encoding="UTF-8"?>
<svg width="14px" height="13px" viewBox="0 0 14 13" version="1.1" xmlns="http://www.w3.org/2000/svg" xmlns:xlink="http://www.w3.org/1999/xlink">
    <!-- Generator: Sketch 48.1 (47250) - http://www.bohemiancoding.com/sketch -->
    <title>Group 182</title>
    <desc>Created with Sketch.</desc>
    <defs></defs>
    <g id="交易查询" stroke="none" stroke-width="1" fill="none" fill-rule="evenodd" transform="translate(-1288.000000, -475.000000)" opacity="0.65">
        <g id="Upload/_Resources/Button" transform="translate(1276.000000, 464.000000)">
            <g id="Group-182" transform="translate(19.000000, 16.500000) scale(1, -1) translate(-19.000000, -16.500000) translate(12.000000, 8.000000)">
                <g id="upload" transform="translate(0.875000, 0.875000)" fill="#000000" fill-rule="nonzero">
                    <path d="M5.80371094,3.13808594 C5.8953125,3.04648437 6.01699219,3 6.13867188,3 C6.26035156,3 6.38066406,3.04648437 6.47363281,3.13808594 L8.60371094,5.26953125 C8.78828125,5.45410156 8.78828125,5.75351562 8.60371094,5.93808594 C8.51484375,6.02695312 8.39589844,6.07617187 8.27011719,6.07617187 C8.14433594,6.07617187 8.02539062,6.02695312 7.93652344,5.93808594 L6.61171875,4.61328125 L6.61171875,12.5128906 C6.61171875,12.7740234 6.39980469,12.9859375 6.13867188,12.9859375 C5.87753906,12.9859375 5.665625,12.7740234 5.665625,12.5128906 L5.665625,4.61328125 L4.34082031,5.93808594 C4.15625,6.12265625 3.85683594,6.12265625 3.67363281,5.93808594 C3.4890625,5.75351562 3.4890625,5.45410156 3.67226562,5.26953125 L5.80371094,3.13808594 Z M11.7769531,5.24726562 C11.5158203,5.24726562 11.3039062,5.03535156 11.3039062,4.77421875 L11.3039062,2.10273437 C11.3039062,1.94824219 11.178125,1.82109375 11.0222656,1.82109375 L1.22636719,1.82109375 C1.071875,1.82109375 0.944726562,1.946875 0.944726562,2.10273437 L0.944726562,4.77558594 C0.944726562,5.03671875 0.7328125,5.24863281 0.471679687,5.24863281 C0.210546875,5.24863281 0,5.03535156 0,4.77558594 L0,1.728125 C0,1.25917969 0.381445313,0.879101562 0.849023437,0.879101562 L11.4009766,0.879101562 C11.8699219,0.879101562 12.25,1.26054687 12.25,1.728125 L12.25,4.77558594 C12.25,5.03535156 12.0380859,5.24726562 11.7769531,5.24726562 Z" id="Shape"></path>
                </g>
                <rect id="Rectangle-49" x="0" y="3" width="14" height="14"></rect>
            </g>
        </g>
    </g>
</svg>