<?xml version="1.0" encoding="UTF-8"?>
<svg width="14px" height="14px" viewBox="0 0 14 14" version="1.1" xmlns="http://www.w3.org/2000/svg" xmlns:xlink="http://www.w3.org/1999/xlink">
    <!-- Generator: Sketch 48.1 (47250) - http://www.bohemiancoding.com/sketch -->
    <title>icon-what</title>
    <desc>Created with Sketch.</desc>
    <defs></defs>
    <g id="线上下单" stroke="none" stroke-width="1" fill="none" fill-rule="evenodd" transform="translate(-1210.000000, -346.000000)">
        <g id="icon-what" transform="translate(1209.000000, 345.000000)" fill-rule="nonzero">
            <rect id="Rectangle-path" fill="#000000" opacity="0" x="0" y="0" width="16" height="16"></rect>
            <path d="M8,1.203125 C4.246875,1.203125 1.203125,4.246875 1.203125,8 C1.203125,11.753125 4.246875,14.796875 8,14.796875 C11.753125,14.796875 14.796875,11.753125 14.796875,8 C14.796875,4.246875 11.753125,1.203125 8,1.203125 Z M7.95625,12.75625 C7.403125,12.75625 6.953125,12.315625 6.953125,11.7734375 C6.953125,11.23125 7.4015625,10.790625 7.95625,10.790625 C8.509375,10.790625 8.959375,11.23125 8.959375,11.7734375 C8.959375,12.315625 8.5109375,12.75625 7.95625,12.75625 Z M10.65,7.1953125 C10.453125,7.5046875 10.0359375,7.925 9.3953125,8.4578125 C9.0640625,8.7328125 8.8578125,8.9546875 8.778125,9.1234375 C8.6984375,9.290625 8.6609375,9.590625 8.66875,10.0234375 L7.240625,10.0234375 C7.2375,9.81875 7.234375,9.69375 7.234375,9.6484375 C7.234375,9.1859375 7.3109375,8.80625 7.4640625,8.5078125 C7.6171875,8.209375 7.9234375,7.8734375 8.38125,7.5015625 C8.8390625,7.128125 9.1140625,6.884375 9.203125,6.76875 C9.340625,6.5859375 9.4109375,6.384375 9.4109375,6.165625 C9.4109375,5.8609375 9.2875,5.6 9.04375,5.38125 C8.8,5.1640625 8.46875,5.0546875 8.0546875,5.0546875 C7.6546875,5.0546875 7.3203125,5.16875 7.0515625,5.3953125 C6.7828125,5.621875 6.5515625,6.121875 6.496875,6.43125 C6.4453125,6.7234375 5.0375,6.846875 5.0546875,6.2546875 C5.071875,5.6625 5.3796875,5.0203125 5.9078125,4.5546875 C6.4359375,4.0890625 7.1296875,3.85625 7.9875,3.85625 C8.890625,3.85625 9.6078125,4.0921875 10.1421875,4.5640625 C10.6765625,5.0359375 10.9421875,5.584375 10.9421875,6.2109375 C10.94375,6.5578125 10.8453125,6.8859375 10.65,7.1953125 Z" id="Shape" fill="#B2B2B2"></path>
        </g>
    </g>
</svg>