<?xml version="1.0" encoding="UTF-8"?>
<svg width="15px" height="14px" viewBox="0 0 15 14" version="1.1" xmlns="http://www.w3.org/2000/svg" xmlns:xlink="http://www.w3.org/1999/xlink">
    <!-- Generator: Sketch 48.1 (47250) - http://www.bohemiancoding.com/sketch -->
    <title>icon-deal</title>
    <desc>Created with Sketch.</desc>
    <defs>
        <polygon id="path-1" points="0.00133333333 0.0143980198 14.9841111 0.0143980198 14.9841111 10.9782396 0.00133333333 10.9782396"></polygon>
    </defs>
    <g id="主界面" stroke="none" stroke-width="1" fill="none" fill-rule="evenodd" transform="translate(-25.000000, -220.000000)">
        <g id="左侧导航" transform="translate(0.000000, 64.000000)">
            <g id="icon-deal" transform="translate(25.000000, 157.000000)">
                <path d="M12.6146868,6 L2.3852215,6 C2.17295893,6 2,6.2244461 2,6.50001487 C2,6.77546468 2.17295893,7 2.3852215,7 L12.6146868,7 C12.8270411,7 13,6.77546468 13,6.50001487 C13,6.2244461 12.8270411,6 12.6146868,6 Z" id="Fill-1" fill="#7EC6EF"></path>
                <path d="M12.6146868,9 L2.3852215,9 C2.17295893,9 2,9.22456506 2,9.50001487 C2,9.77558364 2.17295893,10 2.3852215,10 L12.6146868,10 C12.8270411,10 13,9.77558364 13,9.50001487 C13,9.22224535 12.8270411,9 12.6146868,9 Z" id="Fill-2" fill="#7EC6EF"></path>
                <path d="M4.50001487,4 C4.77539916,4 5,3.83618177 5,3.63502358 L5,0.365063255 C5,0.163991902 4.77539916,0 4.50001487,0 C4.22463057,0 4,0.163991902 4,0.365063255 L4,3.63502358 C4,3.8378751 4.22463057,4 4.50001487,4 Z" id="Fill-3" stroke="#7EC6EF" stroke-width="0.2" fill="#7EC6EF"></path>
                <g id="Group-7" transform="translate(0.000000, 2.000000)">
                    <mask id="mask-2" fill="white">
                        <use xlink:href="#path-1"></use>
                    </mask>
                    <g id="Clip-5"></g>
                    <polygon id="Fill-4" stroke="#7EC6EF" stroke-width="0.6" fill="#7EC6EF" mask="url(#mask-2)" points="5.36606667 0.725969274 9.61111111 0.725969274 9.61111111 0.0143980198 5.36606667 0.0143980198"></polygon>
                </g>
                <path d="M10.5000743,4 C10.7755806,4 11,3.83618177 11,3.63502358 L11,0.365063255 C11,0.163991902 10.7754617,0 10.5000743,0 C10.2246573,0 10,0.163991902 10,0.365063255 L10,3.63502358 C10,3.8378751 10.2246573,4 10.5000743,4 Z" id="Fill-8" stroke="#7EC6EF" stroke-width="0.2" fill="#7EC6EF"></path>
                <path d="M14,2.5 L1,2.5 C0.73505275,2.5 0.5,2.75855803 0.5,3.1 L0.5,11.9 C0.5,12.241442 0.73505275,12.5 1,12.5 L14,12.5 C14.2649472,12.5 14.5,12.241442 14.5,11.9 L14.5,3.1 C14.5,2.75855803 14.2649472,2.5 14,2.5 Z" id="Rectangle-18" stroke="#7EC6EF"></path>
            </g>
        </g>
    </g>
</svg>