<?xml version="1.0" encoding="UTF-8"?>
<svg width="28px" height="26px" viewBox="0 0 28 26" version="1.1" xmlns="http://www.w3.org/2000/svg" xmlns:xlink="http://www.w3.org/1999/xlink">
    <!-- Generator: Sketch 48.1 (47250) - http://www.bohemiancoding.com/sketch -->
    <title>icon-deposit</title>
    <desc>Created with Sketch.</desc>
    <defs></defs>
    <g id="主界面" stroke="none" stroke-width="1" fill="none" fill-rule="evenodd" transform="translate(-1195.000000, -454.000000)">
        <g id="icon-deposit" transform="translate(1195.000000, 454.000000)" fill="#85D9C8" fill-rule="nonzero">
            <path d="M20.0681552,21.8668066 C18.0208629,23.4964529 15.5585325,24.3558107 12.947262,24.3558107 C6.63295364,24.3558107 1.49466752,19.2277694 1.49466755,12.9231883 C1.49466755,6.61853296 6.63291631,1.48856104 12.947262,1.48856101 C18.9814298,1.48856101 24.0011016,6.19665084 24.3737135,12.2067721 L24.3861127,12.387844 L25.8824608,12.387844 L25.8699869,12.1839757 C25.7857693,10.6990161 25.4516996,9.25571374 24.8762184,7.89264437 C24.2251841,6.35347828 23.2923287,4.97113963 22.102264,3.78416695 C20.910556,2.59704577 19.5262491,1.66465773 17.9859808,1.01618526 C16.3896171,0.341686259 14.6941343,0 12.9459922,0 C11.1990451,0 9.50315152,0.341649142 7.90686256,1.01618526 C6.36737853,1.66643987 4.98232471,2.59704577 3.79099015,3.78416695 C2.60253133,4.97292177 1.66933981,6.35526042 1.01912716,7.89442651 C0.341501714,9.48920988 0,11.1800426 0,12.9231883 C0,14.6662597 0.341464378,16.3587261 1.01912716,17.9535095 C1.66937718,19.4926756 2.60253136,20.8750143 3.79099015,22.0603162 C4.98105488,23.249071 6.36737853,24.1798997 7.90891666,24.8299686 C9.50479477,25.5046161 11.2006884,25.8461539 12.9472246,25.8461538 C14.694097,25.8461538 16.3896171,25.5046161 17.987624,24.8299686 C19.4843083,24.1989462 20.8366461,23.2979311 22.0059459,22.1542493 L22.3420322,21.8248523 L20.1212628,21.8248523 L20.0681552,21.8668066 Z M17.0896508,13.6272781 C17.4958751,13.6272781 17.8283014,13.2927203 17.8283014,12.8795262 C17.8283014,12.4665547 17.4975556,12.1299921 17.0896508,12.1299921 L13.8294001,12.1299921 L13.8294001,11.6994963 C13.8451232,11.6681606 13.8575971,11.6367877 13.8663363,11.6035955 L17.034041,8.23956563 C17.3191113,7.94848442 17.3191113,7.47592301 17.034041,7.18658683 C16.8937654,7.04360805 16.7082998,6.96523144 16.5108084,6.96523144 C16.3128689,6.96523144 16.1257227,7.04364516 15.985447,7.18658683 L13.0924301,10.2912054 L10.199824,7.19018823 L10.1981433,7.18662394 C10.0579424,7.04364516 9.87079618,6.96526856 9.67285664,6.9652686 C9.47532795,6.9652686 9.29150558,7.04368232 9.15122999,7.18662394 C8.86406829,7.47592301 8.86406829,7.94848442 9.14954936,8.23960274 L12.3156482,11.6054147 C12.3259933,11.6386069 12.3401105,11.6699798 12.3554601,11.6995335 L12.3554601,12.1300292 L9.09562018,12.1300292 C8.68939596,12.1300292 8.35659614,12.4648097 8.35659614,12.8795633 C8.35659614,13.2909382 8.68775271,13.6273152 9.09562018,13.6273152 L12.3554601,13.6273152 L12.3554601,14.5198281 L9.09562018,14.5198281 C8.68939596,14.5198281 8.35659614,14.8545343 8.35659614,15.2675058 C8.35659614,15.6807371 8.68775271,16.0154434 9.09562018,16.0154434 L12.3554601,16.0154434 L12.3554601,18.1908298 C12.3554601,18.6020191 12.6849361,18.9383961 13.0924301,18.9383961 C13.5003349,18.9383961 13.8314541,18.6038384 13.8314541,18.1908298 L13.8314541,16.0136612 L17.0896135,16.0136612 C17.4958377,16.0136612 17.828264,15.678955 17.828264,15.2659835 C17.828264,14.8527522 17.4958377,14.518046 17.0896135,14.518046 L13.8293627,14.518046 L13.8293627,13.6273152 L17.0896508,13.6273152 L17.0896508,13.6272781 Z M27.9509663,16.8432426 C27.9315084,16.797984 27.9090255,16.7631953 27.8895677,16.7388024 C27.8841524,16.7318596 27.8808284,16.726476 27.8775046,16.7213153 C27.8743329,16.7171011 27.8719657,16.7123443 27.8705207,16.707281 C27.8580468,16.684596 27.840643,16.6534458 27.8111761,16.6202537 L25.0600408,13.7232161 C24.9313599,13.5861475 24.7511382,13.5084487 24.5625403,13.5087293 C24.3807347,13.5087293 24.2110669,13.5786408 24.0815846,13.7059146 C23.8085774,13.9759444 23.8015188,14.4169472 24.0641809,14.6941427 L25.6916173,16.4076233 L19.5872742,16.4076233 C19.2059232,16.4076233 18.8959797,16.7213153 18.8959797,17.1065152 C18.8959797,17.4917151 19.2059232,17.8038477 19.5872742,17.8038477 L25.6915799,17.8038477 L24.0620894,19.5171427 C23.8014815,19.794301 23.8085401,20.235341 24.0794932,20.5019922 C24.2074424,20.6283341 24.3805199,20.6991528 24.5608597,20.6989547 C24.75006,20.6989547 24.9264129,20.622286 25.0579493,20.4846907 L27.8078149,17.5876531 C27.8389624,17.5562431 27.8530049,17.5248701 27.865068,17.5040044 C27.8667486,17.5004401 27.8688027,17.4970986 27.8704833,17.4935344 C27.8758986,17.4883736 27.8791479,17.481208 27.8841524,17.474228 C27.9036849,17.4482386 27.9302387,17.4132643 27.9492857,17.3645899 C27.9827524,17.2814389 27.9999288,17.1926965 27.999891,17.1031366 C28.0015716,17.0175572 27.983757,16.928822 27.9509663,16.8432426 Z" id="Shape"></path>
        </g>
    </g>
</svg>