<?xml version="1.0" encoding="UTF-8"?>
<svg width="15px" height="14px" viewBox="0 0 15 14" version="1.1" xmlns="http://www.w3.org/2000/svg" xmlns:xlink="http://www.w3.org/1999/xlink">
    <!-- Generator: Sketch 48.1 (47250) - http://www.bohemiancoding.com/sketch -->
    <title>icon-safe</title>
    <desc>Created with Sketch.</desc>
    <defs></defs>
    <g id="主界面" stroke="none" stroke-width="1" fill="none" fill-rule="evenodd" transform="translate(-24.000000, -392.000000)">
        <g id="左侧导航" transform="translate(0.000000, 64.000000)" fill="#7EC6EF" fill-rule="nonzero">
            <g id="icon-safe" transform="translate(24.000000, 328.000000)">
                <path d="M14.785853,11.4799027 L8.91837899,0.851462409 C8.77324179,0.589147444 8.56309521,0.372113039 8.30910509,0.222218774 C7.92963177,-0.00106122572 7.48968461,-0.0588329738 7.06939145,0.0613947182 C6.64909829,0.180061012 6.29835004,0.461112759 6.08215608,0.853023807 L0.214682119,11.4799027 C0.0740804494,11.7328492 0,12.021708 0,12.3136895 C0,13.2442831 0.731733418,14 1.63279358,14 L13.3662296,14 C13.6489448,14 13.9286363,13.9234915 14.1750672,13.7782814 C14.5545405,13.5550014 14.8266728,13.1927569 14.9415731,12.7586881 C15.0564734,12.3246193 15.0005351,11.8702523 14.785853,11.4799027 Z M13.892352,12.4635838 C13.8545559,12.6087938 13.7638451,12.7290215 13.6368501,12.8039687 C13.5552104,12.852372 13.4614759,12.8773544 13.3677415,12.8773544 L1.63279358,12.8773544 C1.33193624,12.8773544 1.08852905,12.6259692 1.08852905,12.3152509 C1.08852905,12.2184442 1.11271859,12.1216375 1.15958581,12.037322 L7.02705977,1.41044311 C7.09962837,1.27928562 7.21604051,1.18560171 7.35664217,1.14656674 C7.40502124,1.13251416 7.45340031,1.12626856 7.50177938,1.12626856 C7.59551383,1.12626856 7.68773643,1.15125094 7.77088795,1.1996543 C7.85555132,1.24961905 7.92509623,1.32144339 7.9734753,1.40888171 L13.8409493,12.0357606 C13.912006,12.166918 13.9301482,12.3183737 13.892352,12.4635838 Z" id="Shape"></path>
                <path d="M7.5,10 C7.22375,10 7,10.3891304 7,10.8695652 L7,11.1304348 C7,11.6108696 7.22375,12 7.5,12 C7.77625,12 8,11.6108696 8,11.1304348 L8,10.8695652 C8,10.3891304 7.77625,10 7.5,10 Z" id="Shape"></path>
                <path d="M7.5,4 C7.22375,4 7,4.30862069 7,4.68965517 L7,9.31034483 C7,9.69137931 7.22375,10 7.5,10 C7.77625,10 8,9.69137931 8,9.31034483 L8,4.68965517 C8,4.30862069 7.77625,4 7.5,4 Z" id="Shape"></path>
            </g>
        </g>
    </g>
</svg>