<?xml version="1.0" encoding="UTF-8"?>
<svg width="116px" height="29px" viewBox="0 0 116 29" version="1.1" xmlns="http://www.w3.org/2000/svg" xmlns:xlink="http://www.w3.org/1999/xlink">
    <!-- Generator: Sketch 48.1 (47250) - http://www.bohemiancoding.com/sketch -->
    <title>logo-color</title>
    <desc>Created with Sketch.</desc>
    <defs></defs>
    <g id="主界面" stroke="none" stroke-width="1" fill="none" fill-rule="evenodd" transform="translate(-29.000000, -18.000000)">
        <g id="logo-color" transform="translate(29.000000, 18.000000)" fill-rule="nonzero">
            <path d="M114.390204,16.8014862 C114.679816,14.8724832 114.378064,13.3567177 112.436074,12.6383844 C111.90013,12.4441063 111.215831,12.2548173 110.383177,12.0705174 C109.952824,11.974667 109.614447,11.890612 109.361359,11.8103236 C108.443862,11.5319905 108.312585,10.1244655 109.426277,9.78279382 C110.553549,9.44508696 112.065186,9.7300612 113.166841,9.87864429 C113.64452,9.93811717 114.104605,10.0128548 114.543086,10.0931432 L115.464698,6.73827777 C113.319723,6.17625901 110.438528,5.99575881 108.080999,6.50940628 C104.500107,7.29107822 102.732706,12.9999795 105.719458,14.49037 C106.225635,14.7394622 106.910414,14.9695232 107.788713,15.1842203 C108.69407,15.4033779 110.227003,15.5818956 109.9698,16.8231938 C109.83986,17.4536064 109.24037,18.0324758 108.251062,18.0298987 C107.406611,18.0273215 106.598683,17.9605136 105.835405,17.834332 C105.066675,17.7098354 104.385909,17.555305 103.783743,17.37084 L102.573857,20.5750407 C104.215434,21.121993 106.122239,21.443444 107.94108,21.443444 C111.316209,21.443444 113.86448,20.303547 114.389587,16.8016845 L114.390204,16.8014862 Z M65.6523776,21.1438989 L66.2681231,17.1612972 L58.0611664,17.1612972 L60.6324826,0.503041478 L55.8616637,1.19808125 L52.7838621,21.1438989 L65.6523776,21.1438989 Z M73.944623,4.73285211 L74.6517272,0.149772546 L70.1763839,0.149772546 L69.4685594,4.73285211 L73.944623,4.73285211 Z M71.4115786,21.1438989 L73.6622134,6.55896702 L69.1861498,6.55896702 L66.9347949,21.1438989 L71.4115786,21.1438989 Z M86.3766124,21.1438989 L87.9518304,10.9320082 C88.1033748,9.98738054 88.1209675,9.16467231 88.0005962,8.47102024 C87.8855748,7.77152 87.6013133,7.22843345 87.1534703,6.84384213 C86.7000375,6.45925082 86.046363,6.26431192 85.1924469,6.25902544 C84.6060226,6.25902544 83.9555031,6.31909305 83.2436663,6.42921701 C82.5075331,6.54833861 81.7798417,6.71164532 81.0648428,6.91818324 C80.3286231,7.12812252 79.6154489,7.37840424 78.9441474,7.66724421 L78.528712,6.55896702 L75.3232345,6.55896702 L73.0721882,21.1438989 L77.5475316,21.1438989 L79.0361234,11.4993795 C79.3893154,11.3253222 79.7831456,11.1603841 80.2068115,11.0006994 C80.6125547,10.8486174 81.0268622,10.7186618 81.4477676,10.6114493 C81.8470505,10.5071736 82.1866622,10.456919 82.4613557,10.452855 C82.8457208,10.452855 83.1109492,10.5474169 83.2544689,10.7267276 C83.3965482,10.9111927 83.445314,11.166827 83.3882148,11.4998751 L81.899623,21.1443945 L86.3764067,21.1443945 L86.3766124,21.1438989 Z M92.4774828,21.1438989 L93.4991986,14.5242695 L96.7390385,21.143998 L101.639488,21.143998 L97.9218666,13.8071256 L103.700615,6.55906614 L98.7987253,6.55906614 L93.7237888,13.0691663 L95.7416028,0 L91.1715056,0.599090186 L88.0020366,21.143998 L92.4773799,21.143998 L92.4774828,21.1438989 Z" id="Shape" fill="#00A0E9"></path>
            <path d="M43.1103083,28.0414267 L45.89876,21.8902694 L52.7838621,6.68270182 L48.3241994,6.68270182 L43.7343335,17.4548753 L42.27723,6.68270182 L37.8175674,6.68270182 L40.1868011,21.8902694 L41.5919446,21.8902694 L38.9570478,28.0414267 L43.1108137,28.0414267 L43.1103083,28.0414267 Z M6.88671953,4.77728586 L7.58181066,0 L3.18340822,0 L2.48831708,4.77728586 L6.88682062,4.77728586 L6.88671953,4.77728586 Z M4.39809918,21.8902694 L6.6098355,6.68270182 L2.21163523,6.68270182 L0,21.8902694 L4.39809918,21.8902694 Z M23.9973239,8.98778385 L24.2874506,6.99472454 C24.4762857,5.6924767 24.4217985,4.60530646 24.1054896,3.73052664 C23.7865523,2.85109594 23.1577759,2.19480437 22.2240126,1.75307364 C21.2962135,1.31051608 20.0100186,1.09027083 18.3654278,1.09233789 L10.0574916,1.09233789 L7.03299598,21.8902694 L11.6146736,21.8902694 L12.6371935,14.8581311 L16.1191189,14.8581311 C17.7626314,14.8581311 19.1348197,14.6394706 20.2356839,14.2021496 C21.3330437,13.7657932 22.1881595,13.1137046 22.8010312,12.2458839 C23.4143073,11.3751004 23.8131389,10.2890671 23.9975261,8.98778385 L23.9973239,8.98778385 Z M19.4840838,8.51866457 C19.4112994,9.01899645 19.2959563,9.44109012 19.1174323,9.77822761 C18.9378974,10.1181556 18.6556557,10.3673397 18.2792996,10.5375621 C17.8980576,10.7118153 17.3745826,10.7989419 16.7088748,10.7989419 L13.2272527,10.7989419 L14.0347553,5.24526826 L17.5166807,5.24526826 C18.1526345,5.24526826 18.6402901,5.32278301 18.9743907,5.47905275 C19.3084914,5.63532249 19.5219923,5.87541151 19.617623,6.19756283 C19.7132536,6.51971414 19.71477,6.93136915 19.6422888,7.4306675 L19.4839827,8.51825115 L19.4840838,8.51866457 Z M35.1092796,21.8902694 L36.5218026,12.1778776 C36.6850284,11.1262953 36.7288339,10.2310516 36.6532189,9.4921465 C36.5824563,8.753896 36.3543985,8.15568882 35.9633845,7.6921506 C35.576414,7.23336662 34.984333,6.89478218 34.1908819,6.68280517 C33.396622,6.47403211 32.3584332,6.36396116 31.0749003,6.37005899 C30.4579827,6.37112183 29.8415175,6.40427208 29.2278948,6.46938122 C28.5723296,6.53139303 27.9334442,6.62027661 27.307195,6.72900397 C26.6792273,6.84382915 26.120708,6.97374388 25.6211239,7.11988502 L25.7108913,10.4914667 C26.4342875,10.3520435 27.132007,10.2419725 27.8095085,10.169212 C28.472422,10.0924064 29.1390713,10.0542075 29.8062276,10.0548003 C30.3910301,10.0548003 30.8497741,10.0858062 31.1955,10.1587734 C31.5358683,10.2370116 31.7809091,10.3546273 31.9328466,10.5136876 C32.3098092,10.9059122 32.2951512,12.1409806 32.1267361,12.8934938 L28.034938,12.8934938 C25.1750161,12.8934938 23.2558327,14.5650219 22.8174077,17.5804492 C22.4477235,20.1213827 23.3374119,22.1803813 26.0244708,22.2028089 C26.5327486,22.2068396 27.1667817,22.1191963 27.9220211,21.9268564 C28.6772605,21.7345164 30.4103382,21.4006862 31.3407656,20.9221618 L31.5053392,21.8908895 L35.1092796,21.8908895 L35.1092796,21.8902694 Z M31.2516047,18.1733853 C30.1563004,18.6580076 26.752416,19.5015748 27.0417341,17.5174038 C27.1717351,16.6208165 27.8897736,16.0157881 28.6801921,16.0157881 L31.6724401,16.0157881 L31.2515036,18.1733853 L31.2516047,18.1733853 Z" id="Shape" fill="#005BAC"></path>
        </g>
    </g>
</svg>