<?xml version="1.0" encoding="UTF-8"?>
<svg width="36px" height="36px" viewBox="0 0 36 36" version="1.1" xmlns="http://www.w3.org/2000/svg" xmlns:xlink="http://www.w3.org/1999/xlink">
    <!-- Generator: Sketch 48.1 (47250) - http://www.bohemiancoding.com/sketch -->
    <title>ficon-eedbook</title>
    <desc>Created with Sketch.</desc>
    <defs></defs>
    <g id="联系我们" stroke="none" stroke-width="1" fill="none" fill-rule="evenodd" transform="translate(-825.000000, -433.000000)" opacity="0.6">
        <g id="账户状态" transform="translate(280.000000, 186.000000)">
            <g id="Group-5" transform="translate(505.000000, 246.000000)">
                <g id="ficon-eedbook" transform="translate(39.000000, 0.000000)">
                    <path d="M18.983766,35.5770907 C9.84032529,35.5770907 2.40097916,28.1408205 2.40097916,19.0001139 C2.40097916,14.5714426 4.12683303,10.4066923 7.261114,7.27191765 C10.4014708,4.14420623 14.5641705,2.42287132 18.983766,2.42287132 C22.3194244,2.42287132 25.536945,3.41145505 28.2897745,5.28214272 C32.8425457,8.37453808 35.5610086,13.5031129 35.5610086,19.0001139 C35.5610086,19.4088688 35.5468822,19.778738 35.5176041,20.1309872 C34.946889,28.78475 27.6841612,35.5770907 18.983766,35.5770907 Z" id="Path" stroke="#000000" stroke-width="2"></path>
                    <path d="M18.7425536,25.9244532 C18.1718005,25.9244532 17.7090463,25.461699 17.7090463,24.8909839 L17.7090463,19.8358133 C17.7090463,19.2650982 18.1718005,18.802306 18.7425535,18.802306 C21.1471212,18.802306 22.8265706,17.1271858 22.8265706,14.7284281 C22.8265706,12.4507704 21.1284759,10.666626 18.9605258,10.666626 C16.7741961,10.666626 15.125316,12.4018215 15.125316,14.7029474 L15.125316,15.5898361 C15.125316,16.1605891 14.6625618,16.6233054 14.0918087,16.6233054 C13.5210557,16.6233054 13.0583394,16.1605511 13.0583394,15.5898361 L13.0583394,14.7029474 C13.0583394,11.2805178 15.6508797,8.59964941 18.9605258,8.59964941 C22.2873362,8.59964941 24.8935092,11.2916063 24.8935092,14.7284281 C24.8935092,17.876114 22.7561663,20.3275799 19.7759849,20.7903721 L19.7759849,24.8909839 C19.7760229,25.461699 19.3132686,25.9244532 18.7425536,25.9244532 Z" id="Path" fill="#000000"></path>
                    <path d="M19.7497826,27.8249127 C19.7497826,28.3769444 19.3031675,28.8230659 18.7516294,28.8230659 C18.2010407,28.8230659 17.7534382,28.3769444 17.7534382,27.8249127 C17.7534382,27.2748936 18.2010407,26.8277088 18.7516294,26.8277088 C19.3032054,26.8277468 19.7497826,27.2748936 19.7497826,27.8249127 Z" id="Path" fill="#000000"></path>
                </g>
            </g>
        </g>
    </g>
</svg>