<?xml version="1.0" encoding="UTF-8"?>
<svg width="75px" height="75px" viewBox="0 0 75 75" version="1.1" xmlns="http://www.w3.org/2000/svg" xmlns:xlink="http://www.w3.org/1999/xlink">
    <!-- Generator: Sketch 48.1 (47250) - http://www.bohemiancoding.com/sketch -->
    <title>icon-key</title>
    <desc>Created with Sketch.</desc>
    <defs></defs>
    <g id="密钥管理" stroke="none" stroke-width="1" fill="none" fill-rule="evenodd" transform="translate(-325.000000, -308.000000)">
        <g id="icon-key" transform="translate(326.000000, 309.000000)" fill="#00A4FF" fill-rule="nonzero" stroke="#00A4FF" stroke-width="0.4">
            <path d="M33,22.1428571 C32.5266131,22.1428571 32.1428571,22.5266131 32.1428571,23 C32.1428571,23.4733869 32.5266131,23.8571429 33,23.8571429 L41,23.8571429 C41.4733869,23.8571429 41.8571429,23.4733869 41.8571429,23 C41.8571429,22.5266131 41.4733869,22.1428571 41,22.1428571 L33,22.1428571 Z M33,21 L41,21 C42.1045695,21 43,21.8954305 43,23 C43,24.1045695 42.1045695,25 41,25 L33,25 C31.8954305,25 31,24.1045695 31,23 C31,21.8954305 31.8954305,21 33,21 Z" id="Rectangle-8"></path>
            <path d="M41.475614,73 L41.3262143,71.8990027 C58.7496963,69.5127857 71.8939394,54.5020288 71.8939394,36.6689617 C71.8939394,17.0309415 56.047533,1.11118066 36.5,1.11118066 C16.952467,1.11118066 1.10606061,17.0309415 1.10606061,36.6689617 C1.10606061,54.2529782 13.8929244,69.1236159 31.0090554,71.8014952 L30.8388571,72.8994415 C13.1860691,70.1376004 0,54.802702 0,36.6689617 C0,16.4172533 16.3416066,0 36.5,0 C56.6583934,0 73,16.4172533 73,36.6689617 C73,55.0595438 59.4453649,70.5389692 41.475614,73 Z" id="Oval-2"></path>
            <path d="M26.1219512,16.1052632 L26.1219512,34.8947368 L46.8780488,34.8947368 L46.8780488,16.1052632 L26.1219512,16.1052632 Z M25,15 L48,15 L48,36 L25,36 L25,15 Z" id="Rectangle-3"></path>
            <polygon id="Path-5" points="41 52.0820907 41 55.7234875 36.5856907 60 32 55.557456 32 39.2366748 33.1428969 39.2366748 33.1428969 55.0988303 36.5856907 58.434154 39.8571031 55.2648619 39.8571031 52.5407163 37.194832 49.9615506 39.8571031 46.5885448 39.8571031 39 41 39 41 46.9633537 38.7105053 49.8640647"></polygon>
        </g>
    </g>
</svg>