<?xml version="1.0" encoding="UTF-8"?>
<svg width="41px" height="34px" viewBox="0 0 41 34" version="1.1" xmlns="http://www.w3.org/2000/svg" xmlns:xlink="http://www.w3.org/1999/xlink">
    <!-- Generator: Sketch 48.1 (47250) - http://www.bohemiancoding.com/sketch -->
    <title>icon-wechat</title>
    <desc>Created with Sketch.</desc>
    <defs></defs>
    <g id="联系我们" stroke="none" stroke-width="1" fill="none" fill-rule="evenodd" transform="translate(-1109.000000, -436.000000)">
        <g id="账户状态" transform="translate(280.000000, 186.000000)" fill="#000000" fill-rule="nonzero">
            <g id="Group-6" transform="translate(789.000000, 246.000000)">
                <g id="icon-wechat" transform="translate(39.000000, 0.000000)">
                    <rect id="Rectangle-path" opacity="0" x="0" y="0" width="42" height="42"></rect>
                    <path d="M20.792543,14.188166 C21.8285566,14.188166 22.5206953,13.4943457 22.5206953,12.4611211 C22.5206953,11.416166 21.8296641,10.7402695 20.792543,10.7402695 C19.7548887,10.7402695 18.7143633,11.416207 18.7143633,12.4611211 C18.7155117,13.4948789 19.7565293,14.188166 20.792543,14.188166 Z M11.1257754,10.7402285 C10.0897617,10.7402285 9.0425918,11.416166 9.0425918,12.4610801 C9.0425918,13.4942637 10.0898027,14.188125 11.1257754,14.188125 C12.1578516,14.188125 12.8489238,13.4943047 12.8489238,12.4610801 C12.8483496,11.416125 12.1584668,10.7402285 11.1257754,10.7402285 Z M41.4526055,25.2447891 C41.4526055,19.7814258 36.3845918,15.1261523 30.1635879,14.6417578 C30.1719961,14.574 30.1759336,14.5034121 30.1607988,14.4329062 C28.9136777,8.61730078 22.6596152,4.23252539 15.6125566,4.23252539 C7.64937305,4.23252539 1.17017578,9.78550781 1.17017578,16.6107539 C1.17017578,20.2725879 3.03942187,23.5721309 6.58202344,26.173875 L5.34720703,29.8861172 C5.26767773,30.1274941 5.33994727,30.3934805 5.53202344,30.5609062 C5.64904102,30.6617227 5.79636914,30.7143457 5.94529687,30.7143457 C6.04106836,30.7143457 6.13794727,30.6919512 6.22695117,30.6476953 L10.8631934,28.3276465 L11.434377,28.4435977 C12.8618027,28.7370234 14.0943633,28.9912793 15.6125566,28.9912793 C16.0594219,28.9912793 17.2891934,28.82775 17.3927988,28.6967051 C19.0643906,32.8798887 23.6720449,35.899459 29.0934492,35.899459 C30.4822383,35.899459 31.8878437,35.5646074 33.1495254,35.2487051 L36.7234629,37.2025254 C36.8180859,37.254082 36.9222656,37.2809062 37.0252969,37.2809062 C37.1664316,37.2809062 37.3075254,37.2332871 37.4206465,37.1409199 C37.6194492,36.9796465 37.7012344,36.7141934 37.6272832,36.4711348 L36.7144805,33.4359375 C39.7743281,31.0178613 41.4526465,28.1249062 41.4526465,25.2447891 L41.4526055,25.2447891 Z M16.8081211,27.3061523 C16.4133047,27.3403184 16.0129102,27.3571348 15.6153047,27.3571348 C14.274668,27.3571348 13.140668,27.1253145 11.8291523,26.8542832 L11.067,26.7002695 C10.9359551,26.6722559 10.7976504,26.6902207 10.6772285,26.7523184 L7.32678516,28.4295293 L8.19758789,25.8137578 C8.28273633,25.5578203 8.18917969,25.2783809 7.96913086,25.123834 C4.60297852,22.7774531 2.89717969,19.9191973 2.89717969,16.6297852 C2.89717969,10.7161934 8.60191992,5.90354297 15.6147715,5.90354297 C21.8139551,5.90354297 27.302543,9.67513477 28.4353945,14.6915918 C21.9354434,14.7767402 16.6759687,19.346332 16.6759687,24.958623 C16.6759687,25.7745469 16.7997539,26.5652461 17.0086055,27.3279727 C16.9453594,27.3123047 16.878668,27.299959 16.8081621,27.3061523 L16.8081211,27.3061523 Z M35.2886543,32.3489824 C35.0887031,32.4996328 35.0042109,32.7594258 35.0758652,32.9991621 L35.6420449,34.8819023 L33.3186328,33.6107051 C33.2301621,33.5619785 33.1304531,33.5367539 33.0313594,33.5367539 C32.9826328,33.5367539 32.933373,33.5429062 32.8851797,33.5557852 C31.639166,33.8705391 30.3495117,34.1953418 29.0939824,34.1953418 C23.2621348,34.1953418 18.5178164,30.187418 18.5178164,25.2616875 C18.5178164,20.335916 23.2616016,16.3296738 29.0939824,16.3296738 C34.8143906,16.3296738 39.6483281,20.419916 39.6483281,25.2616875 C39.6483281,27.717293 38.1004805,30.2350371 35.2887363,32.3490645 L35.2886543,32.3489824 Z M25.2842461,20.7541523 C24.5932148,20.7541523 23.9021836,21.4502285 23.9021836,22.1401523 C23.9021836,22.8351211 24.5932148,23.5211074 25.2842461,23.5211074 C26.3224746,23.5211074 27.0084609,22.8351211 27.0084609,22.1401523 C27.0084609,21.4491211 26.3224746,20.7541523 25.2842461,20.7541523 Z M32.8773047,20.7541523 C32.1963223,20.7541523 31.505291,21.4502285 31.505291,22.1401523 C31.505291,22.8351211 32.1963223,23.5211074 32.8773047,23.5211074 C33.9121699,23.5211074 34.610502,22.8351211 34.610502,22.1401523 C34.610502,21.4491211 33.9133184,20.7541523 32.8773047,20.7541523 Z" id="Shape" opacity="0.6"></path>
                </g>
            </g>
        </g>
    </g>
</svg>