<?xml version="1.0" encoding="UTF-8"?>
<svg width="32px" height="36px" viewBox="0 0 32 36" version="1.1" xmlns="http://www.w3.org/2000/svg" xmlns:xlink="http://www.w3.org/1999/xlink">
    <!-- Generator: Sketch 48.1 (47250) - http://www.bohemiancoding.com/sketch -->
    <title>icon-QQ</title>
    <desc>Created with Sketch.</desc>
    <defs></defs>
    <g id="联系我们" stroke="none" stroke-width="1" fill="none" fill-rule="evenodd" transform="translate(-553.000000, -431.000000)" opacity="0.6">
        <g id="账户状态" transform="translate(280.000000, 186.000000)" stroke="#000000" stroke-width="2">
            <g id="Group-4" transform="translate(235.000000, 246.000000)">
                <path d="M67.8812086,19.6085474 C67.2560324,17.5946528 65.9396689,16.1232365 65.1213317,15.3503165 C65.2062362,15.0179618 65.2639271,14.6802748 65.2639271,14.3337617 C65.2639271,13.4365421 64.9633828,12.5820734 64.4281677,11.7996379 C64.4358445,11.6382413 64.4559329,11.4802924 64.4559329,11.3170111 C64.4559329,5.47120054 59.7736855,0.732319488 53.9979314,0.732319488 C48.2221773,0.732319488 43.5400219,5.47120054 43.5400219,11.317057 C43.5400219,11.488199 43.560524,11.6539167 43.5690282,11.8228981 C43.0435585,12.5991738 42.7475651,13.4453221 42.7475651,14.3337617 C42.7475651,14.672552 42.8032793,15.0027002 42.8843684,15.3280216 C42.0682377,16.0945059 40.7324294,17.5758975 40.1013692,19.6085934 C39.1646163,22.6259416 39.4447964,25.604768 40.3980981,25.9289861 C41.0134369,26.1383742 41.8687789,25.2938348 42.6507548,23.8634686 C43.2254112,25.4371656 44.1368352,26.8513508 45.2912505,28.0364273 C43.3850609,28.4728554 42.0554583,29.4178827 42.0554583,30.5215484 C42.0554583,32.03829 44.5512442,33.2675886 47.6298689,33.2675886 C49.9118997,33.2675886 51.8677356,32.5904217 52.7301569,31.6230995 C53.1469563,31.6657586 53.567709,31.6954085 53.9962765,31.6954085 C54.4203849,31.6954085 54.8369085,31.6664022 55.2495248,31.6245246 C56.1125896,32.5910193 58.0674142,33.2675426 60.3482039,33.2675426 C63.4268286,33.2675426 65.9225225,32.0382441 65.9225225,30.5215024 C65.9225225,29.4201352 64.5981144,28.4770386 62.6983145,28.0394613 C63.8513967,26.8566372 64.7622692,25.4453021 65.3376611,23.8748229 C66.1180739,25.2986155 66.9706579,26.1378685 67.5844338,25.9289401 C68.5377814,25.604722 68.8179614,22.6258956 67.8812086,19.6085474 Z" id="icon-QQ"></path>
            </g>
        </g>
    </g>
</svg>