<?xml version="1.0" encoding="UTF-8"?>
<svg width="119px" height="29px" viewBox="0 0 119 29" version="1.1" xmlns="http://www.w3.org/2000/svg" xmlns:xlink="http://www.w3.org/1999/xlink">
    <!-- Generator: Sketch 48.1 (47250) - http://www.bohemiancoding.com/sketch -->
    <title>logo</title>
    <desc>Created with Sketch.</desc>
    <defs></defs>
    <g id="独立导航" stroke="none" stroke-width="1" fill="none" fill-rule="evenodd" transform="translate(-137.000000, -14.000000)">
        <g id="logo" transform="translate(137.000000, 14.000000)" fill-rule="nonzero">
            <path d="M117.88575,18.0210877 C118.186077,15.9520605 117.873161,14.3262671 115.859318,13.5557908 C115.303544,13.3474103 114.593927,13.144381 113.730465,12.946703 C113.284189,12.8438949 112.933292,12.7537384 112.67084,12.667622 C111.719396,12.369085 111.583262,10.8593894 112.73816,10.4929161 C113.90714,10.1306954 115.474708,10.4363557 116.617123,10.5957242 C117.112475,10.6595142 117.589584,10.7396769 118.044289,10.8257933 L119,7.22740195 C116.775661,6.62458687 113.787863,6.43098435 111.343107,6.98191693 C107.629724,7.82032958 105.79693,13.9436337 108.89419,15.54221 C109.419095,15.8093836 110.129211,16.0561444 111.040006,16.2864261 C111.978861,16.5214921 113.568513,16.7129683 113.301793,18.044371 C113.167046,18.7205445 112.545374,19.3414334 111.519462,19.3386692 C110.643767,19.335905 109.805946,19.2642476 109.014428,19.1289066 C108.217255,18.9953729 107.5113,18.8296253 106.886855,18.6317702 L105.632204,22.0685603 C107.334518,22.6552153 109.311874,23 111.198011,23 C114.698019,23 117.340574,21.7773592 117.88511,18.0213003 L117.88575,18.0210877 Z M67.344645,22.6787113 L67.9831728,18.4070169 L59.4725623,18.4070169 L62.1390161,0.539556706 L57.191679,1.28504865 L54,22.6787113 L67.344645,22.6787113 Z M75.9436999,5.07640465 L76.6769667,0.160644371 L72.0360376,0.160644371 L71.302024,5.07640465 L75.9436999,5.07640465 Z M73.316934,22.6787113 L75.6508413,7.03507523 L71.0091653,7.03507523 L68.6745112,22.6787113 L73.316934,22.6787113 Z M88.8356676,22.6787113 L90.469168,11.7255507 C90.6263194,10.7123535 90.6445631,9.82992581 90.5197381,9.0859223 C90.4004609,8.3356461 90.1056819,7.7531375 89.6412689,7.34062912 C89.1710592,6.92812074 88.493199,6.71903144 87.6076884,6.71336122 C86.9995667,6.71336122 86.3249783,6.77778908 85.5868038,6.89590681 C84.823434,7.02367531 84.0688184,7.19883628 83.3273648,7.42036656 C82.5639053,7.6455451 81.8243439,7.9139945 81.1282045,8.22380105 L80.6973983,7.03507523 L77.3733195,7.03507523 L75.0389854,22.6787113 L79.6799146,22.6787113 L81.2235836,12.3341068 C81.5898436,12.1474149 81.9982454,11.9705041 82.4375867,11.799228 C82.8583423,11.6361067 83.2879789,11.4967177 83.7244577,11.3817228 C84.1385139,11.2698777 84.4906911,11.2159752 84.7755481,11.2116162 C85.1741346,11.2116162 85.4491763,11.3130423 85.5980061,11.505369 C85.7453422,11.7032242 85.7959124,11.9774147 85.7367005,12.3346384 L84.1930315,22.6792428 L88.8354542,22.6792428 L88.8356676,22.6787113 Z M95.1622676,22.6787113 L96.2217864,15.5785703 L99.581499,22.6788176 L104.663263,22.6788176 L100.808091,14.8093697 L106.800651,7.03518155 L101.717393,7.03518155 L96.4546863,14.0178427 L98.5471586,0 L93.8079698,0.642577484 L90.5212317,22.6788176 L95.1621609,22.6788176 L95.1622676,22.6787113 Z" id="Shape" fill="#00A0E9"></path>
            <path d="M44.9203007,29 L47.8258259,22.6385704 L55,6.91114453 L50.3530978,6.91114453 L45.5705257,18.0515559 L44.0522455,6.91114453 L39.4053433,6.91114453 L41.8740496,22.6385704 L43.3381883,22.6385704 L40.5926649,29 L44.9208273,29 L44.9203007,29 Z M7.17585943,4.94059348 L7.90013406,0 L3.31706406,0 L2.59278943,4.94059348 L7.17596476,4.94059348 L7.17585943,4.94059348 Z M4.582754,22.6385704 L6.88735038,6.91114453 L2.30449105,6.91114453 L0,22.6385704 L4.582754,22.6385704 Z M25.0048549,9.2950239 L25.3071627,7.23383349 C25.5039261,5.88706937 25.4471512,4.7627351 25.117562,3.85805165 C24.7852341,2.94855833 24.1300584,2.26983197 23.1570909,1.81300103 C22.190338,1.355315 20.850142,1.12754085 19.1365029,1.12967857 L10.4797568,1.12967857 L7.32827731,22.6385704 L12.1023173,22.6385704 L13.1677679,15.3660441 L16.7958824,15.3660441 C18.508398,15.3660441 19.9381978,15.1399089 21.085282,14.6876384 C22.2287146,14.2363656 23.1197325,13.5619859 23.7583357,12.6644995 C24.3973603,11.7639489 24.8129369,10.6407904 25.0050656,9.2950239 L25.0048549,9.2950239 Z M20.3021258,8.80986816 C20.2262856,9.32730349 20.1060998,9.76382608 19.9200804,10.1124883 C19.7330078,10.4640365 19.438916,10.7217388 19.0467586,10.8977801 C18.64951,11.07799 18.1040569,11.1680949 17.4103993,11.1680949 L13.7826008,11.1680949 L14.6240065,5.42457347 L18.252121,5.42457347 C18.9147754,5.42457347 19.4229053,5.504738 19.7710332,5.66634969 C20.1191612,5.82796139 20.341626,6.07625766 20.4412717,6.40942145 C20.5409174,6.74258524 20.5424974,7.16831234 20.4669731,7.68467881 L20.3020205,8.80944062 L20.3021258,8.80986816 Z M36.5833477,22.6385704 L38.0551757,12.5941684 C38.2252546,11.5066386 38.2708992,10.5807917 38.1921095,9.81662778 C38.1183759,9.05314079 37.8807431,8.43448439 37.4733123,7.95510049 C37.0700948,7.48063336 36.4531552,7.13047468 35.6263909,6.91125141 C34.7987839,6.69534161 33.7170066,6.58150798 32.3795844,6.58781425 C31.7367655,6.58891342 31.0944178,6.6231969 30.4550321,6.69053174 C29.7719429,6.75466336 29.1062338,6.84658536 28.4536915,6.95902947 C27.7993584,7.07777987 27.2173896,7.21213562 26.6968304,7.36327248 L26.7903668,10.8501089 C27.5441348,10.7059196 28.2711481,10.592086 28.9770947,10.5168382 C29.6678407,10.4374071 30.3624794,10.3979023 31.0576463,10.3985154 C31.6670018,10.3985154 32.1450062,10.4305812 32.5052475,10.5060427 C32.8599062,10.5869555 33.1152351,10.7085918 33.2735517,10.8730894 C33.6663411,11.2787219 33.6510677,12.5560101 33.4755817,13.3342474 L29.2119889,13.3342474 C26.2319927,13.3342474 24.2322321,15.0629153 23.7753998,18.1814225 C23.3901944,20.8092158 24.3172364,22.9385995 27.1171119,22.9617938 C27.6467299,22.9659623 28.3073829,22.875323 29.0943311,22.676408 C29.8812793,22.4774931 31.6871206,22.1322512 32.6566121,21.6373688 L32.8280954,22.6392117 L36.5833477,22.6392117 L36.5833477,22.6385704 Z M32.5637077,18.7946277 C31.4224169,19.2958163 27.87562,20.1682202 28.1770851,18.116222 C28.3125443,17.1889856 29.0607297,16.5632747 29.884334,16.5632747 L33.002212,16.5632747 L32.5636024,18.7946277 L32.5637077,18.7946277 Z" id="Shape" fill="#005BAC"></path>
        </g>
    </g>
</svg>