<?xml version="1.0" encoding="UTF-8"?>
<svg width="36px" height="36px" viewBox="0 0 36 36" version="1.1" xmlns="http://www.w3.org/2000/svg" xmlns:xlink="http://www.w3.org/1999/xlink">
    <!-- Generator: Sketch 48.1 (47250) - http://www.bohemiancoding.com/sketch -->
    <title>frown-o</title>
    <desc>Created with Sketch.</desc>
    <defs></defs>
    <g id="表格无数据" stroke="none" stroke-width="1" fill="none" fill-rule="evenodd" transform="translate(-673.000000, -117.000000)" fill-opacity="0.25">
        <g id="Group-36" transform="translate(587.000000, 117.000000)" fill="#000000" fill-rule="nonzero">
            <g id="Group-16">
                <g id="frown-o" transform="translate(86.000000, 0.000000)">
                    <path d="M18,0 C8.0578125,0 0,8.0578125 0,18 C0,27.9421875 8.0578125,36 18,36 C27.9421875,36 36,27.9421875 36,18 C36,8.0578125 27.9421875,0 18,0 Z M28.9371094,28.9371094 C27.5167969,30.3574219 25.8609375,31.4753906 24.01875,32.2523438 C22.1132813,33.0609375 20.0882813,33.46875 18,33.46875 C15.9117188,33.46875 13.8867188,33.0609375 11.98125,32.2558594 C10.1390625,31.4753906 8.48671875,30.3609375 7.06289063,28.940625 C5.64257813,27.5203125 4.52460938,25.8644531 3.74765625,24.0222656 C2.9390625,22.1132813 2.53125,20.0882813 2.53125,18 C2.53125,15.9117188 2.9390625,13.8867188 3.74414063,11.98125 C4.52460938,10.1390625 5.6390625,8.48671875 7.059375,7.06289063 C8.4796875,5.64257813 10.1355469,4.52460938 11.9777344,3.74765625 C13.8867188,2.9390625 15.9117188,2.53125 18,2.53125 C20.0882813,2.53125 22.1132813,2.9390625 24.01875,3.74414063 C25.8609375,4.52460938 27.5132813,5.6390625 28.9371094,7.059375 C30.3574219,8.4796875 31.4753906,10.1355469 32.2523438,11.9777344 C33.0609375,13.8867188 33.46875,15.9117188 33.46875,18 C33.46875,20.0882813 33.0609375,22.1132813 32.2558594,24.01875 C31.4753906,25.8609375 30.3609375,27.5167969 28.9371094,28.9371094 Z" id="Shape"></path>
                    <path d="M23.6716505,28.173913 C22.9133346,28.173913 22.2998227,27.5448566 22.2998227,26.7673273 C22.2998227,24.7785713 20.7222208,23.1609976 18.7826087,23.1609976 C16.8429966,23.1609976 15.2653947,24.7785713 15.2653947,26.7673273 C15.2653947,27.5448566 14.6518828,28.173913 13.8935669,28.173913 C13.135251,28.173913 12.5217391,27.5448566 12.5217391,26.7673273 C12.5217391,23.2274197 15.3301754,20.3478261 18.7826087,20.3478261 C22.2350419,20.3478261 25.0434783,23.2274197 25.0434783,26.7673273 C25.0434783,27.5448566 24.4299664,28.173913 23.6716505,28.173913 Z" id="Shape"></path>
                    <path d="M6.26086957,13.3043478 C6.26086957,14.6010164 7.31202711,15.6521739 8.60869565,15.6521739 C9.9053642,15.6521739 10.9565217,14.6010164 10.9565217,13.3043478 C10.9565217,12.0076793 9.9053642,10.9565217 8.60869565,10.9565217 C7.31202711,10.9565217 6.26086957,12.0076793 6.26086957,13.3043478 Z" id="Shape"></path>
                    <path d="M25.0434783,13.3043478 C25.0434783,14.6010164 26.0946358,15.6521739 27.3913043,15.6521739 C28.6879729,15.6521739 29.7391304,14.6010164 29.7391304,13.3043478 C29.7391304,12.0076793 28.6879729,10.9565217 27.3913043,10.9565217 C26.0946358,10.9565217 25.0434783,12.0076793 25.0434783,13.3043478 Z" id="Shape"></path>
                </g>
            </g>
        </g>
    </g>
</svg>