<?xml version="1.0" encoding="UTF-8"?>
<svg width="28px" height="26px" viewBox="0 0 28 26" version="1.1" xmlns="http://www.w3.org/2000/svg" xmlns:xlink="http://www.w3.org/1999/xlink">
    <!-- Generator: Sketch 48.1 (47250) - http://www.bohemiancoding.com/sketch -->
    <title>icon-close</title>
    <desc>Created with Sketch.</desc>
    <defs></defs>
    <g id="主界面" stroke="none" stroke-width="1" fill="none" fill-rule="evenodd" transform="translate(-1335.000000, -453.000000)">
        <g id="icon-close" transform="translate(1336.000000, 454.000000)">
            <path d="M13.4580078,24 L2,24 C0.8954305,24 1.3527075e-16,23.1045695 0,22 L0,2 C-1.3527075e-16,0.8954305 0.8954305,2.02906125e-16 2,0 L22,0 C23.1045695,-2.02906125e-16 24,0.8954305 24,2 L24,13.137207" id="Rectangle-8" stroke="#86C8FB" stroke-width="1.5" stroke-linecap="round" stroke-linejoin="round"></path>
            <path d="M15.8689615,12.6539011 C16.2461697,12.6539011 16.5548513,12.3432403 16.5548513,11.95956 C16.5548513,11.5760865 16.2477302,11.263564 15.8689615,11.263564 L12.8415858,11.263564 L12.8415858,10.863818 C12.8561858,10.8347205 12.8677687,10.8055885 12.8758837,10.7747672 L15.8173238,7.65102523 C16.0820319,7.38073553 16.0820319,6.94192851 15.8173238,6.6732592 C15.6870679,6.54049319 15.5148498,6.46771491 15.331465,6.46771491 C15.147664,6.46771491 14.9738853,6.54052765 14.8436294,6.6732592 L12.1572565,9.5561193 L9.47126512,6.67660335 L9.46970454,6.67329366 C9.33951796,6.54052765 9.16573931,6.46774938 8.98193831,6.46774941 C8.79851881,6.46774941 8.62782661,6.54056215 8.4975707,6.67329366 C8.23092056,6.94192851 8.23092056,7.38073553 8.49601012,7.65105969 L11.435959,10.7764565 C11.4455652,10.8072778 11.458674,10.8364098 11.4729273,10.8638525 L11.4729273,11.2635985 L8.44593302,11.2635985 C8.06872482,11.2635985 7.75969642,11.5744661 7.75969642,11.9595945 C7.75969642,12.3415855 8.06719894,12.6539356 8.44593302,12.6539356 L11.4729273,12.6539356 L11.4729273,13.4826975 L8.44593302,13.4826975 C8.06872482,13.4826975 7.75969642,13.7934961 7.75969642,14.1769697 C7.75969642,14.5606845 8.06719894,14.8714831 8.44593302,14.8714831 L11.4729273,14.8714831 L11.4729273,16.8914848 C11.4729273,17.2733034 11.7788692,17.5856535 12.1572565,17.5856535 C12.5360252,17.5856535 12.8434931,17.2749928 12.8434931,16.8914848 L12.8434931,14.8698283 L15.8689268,14.8698283 C16.246135,14.8698283 16.5548166,14.5590296 16.5548166,14.1755561 C16.5548166,13.7918413 16.246135,13.4810427 15.8689268,13.4810427 L12.8415511,13.4810427 L12.8415511,12.6539356 L15.8689615,12.6539356 L15.8689615,12.6539011 Z" id="Path" fill="#86C8FB"></path>
            <polyline id="Line-13" stroke="#86C8FB" stroke-width="1.5" stroke-linecap="round" stroke-linejoin="round" points="17 20.0239724 20 23.0239724 25.828125 17"></polyline>
        </g>
    </g>
</svg>