<?xml version="1.0" encoding="UTF-8"?>
<svg width="16px" height="16px" viewBox="0 0 16 16" version="1.1" xmlns="http://www.w3.org/2000/svg" xmlns:xlink="http://www.w3.org/1999/xlink">
    <!-- Generator: Sketch 48.1 (47250) - http://www.bohemiancoding.com/sketch -->
    <title>icon-help</title>
    <desc>Created with Sketch.</desc>
    <defs></defs>
    <g id="主界面" stroke="none" stroke-width="1" fill="none" fill-rule="evenodd" transform="translate(-24.000000, -520.000000)">
        <g id="左侧导航" transform="translate(0.000000, 64.000000)" fill-rule="nonzero">
            <g id="icon-help" transform="translate(24.000000, 456.000000)">
                <rect id="Rectangle-path" fill="#000000" opacity="0" x="0" y="0" width="16" height="16"></rect>
                <path d="M8,0 C3.6,0 0,3.6 0,8 C0,12.4 3.6,16 8,16 C12.4,16 16,12.4 16,8 C16,3.6 12.4,0 8,0 Z M8,15 C4.1,15 1,11.9 1,8 C1,4.1 4.1,1 8,1 C11.9,1 15,4.1 15,8 C15,11.9 11.9,15 8,15 Z M7.3,11.7 L8.7,11.7 L8.7,13.1 L7.3,13.1 L7.3,11.7 Z M8,2.9 C7.1,2.9 6.3,3.1 5.8,3.6 C5.3,4.1 4.9,4.8 4.8,5.7 L6,5.9 C6.1,5.2 6.3,4.7 6.7,4.4 C7.1,4.1 7.5,3.9 8,3.9 C8.5,3.9 9,4.1 9.4,4.4 C9.8,4.8 10,5.2 10,5.7 C10,6 9.9,6.2 9.8,6.5 C9.6,6.7 9.4,7 8.9,7.4 C8.5,7.7 8.2,8 8.1,8.2 C7.8,8.5 7.7,8.7 7.6,9 C7.5,9.4 7.4,9.8 7.4,10.3 C7.4,10.4 7.4,10.5 7.4,10.7 L8.6,10.7 C8.6,10.2 8.6,9.9 8.7,9.6 C8.8,9.3 8.8,9.1 8.9,9 C9,8.8 9.3,8.6 9.7,8.2 C10.3,7.7 10.7,7.2 10.9,6.9 C11.1,6.6 11.2,6.1 11.2,5.7 C11.2,4.9 10.9,4.3 10.3,3.8 C9.8,3.2 9,2.9 8,2.9 Z" id="Shape" fill="#7EC6EF"></path>
            </g>
        </g>
    </g>
</svg>