<?xml version="1.0" encoding="UTF-8"?>
<svg width="16px" height="13px" viewBox="0 0 16 13" version="1.1" xmlns="http://www.w3.org/2000/svg" xmlns:xlink="http://www.w3.org/1999/xlink">
    <!-- Generator: Sketch 48.1 (47250) - http://www.bohemiancoding.com/sketch -->
    <title>icon-account</title>
    <desc>Created with Sketch.</desc>
    <defs></defs>
    <g id="Notification" stroke="none" stroke-width="1" fill="none" fill-rule="evenodd" transform="translate(-140.000000, -784.000000)">
        <g id="用户名" transform="translate(125.000000, 752.000000)" fill-rule="nonzero">
            <g id="icon-account" transform="translate(15.000000, 31.000000)">
                <rect id="Rectangle-path" fill="#000000" opacity="0" x="0" y="0" width="16" height="16"></rect>
                <path d="M16,12.9824561 C16,13.1504561 15.9649145,13.309614 15.9488754,13.4736842 L14.9464319,13.4736842 C14.9654784,13.3105965 14.9975565,13.1504561 14.9975565,12.9824561 C14.9953435,10.5802659 13.0343465,8.62039318 10.583798,8.57122807 C10.2837932,8.30297119 9.96194221,8.05916717 9.62145229,7.84224561 C9.67558424,7.7194386 9.7046551,7.58582456 9.74675772,7.45810526 C9.98233193,7.52982456 10.2269281,7.57894737 10.486561,7.57894737 C11.8706466,7.57894737 12.9926696,6.47929588 12.9926696,5.12280702 C12.9926696,3.76631816 11.8706466,2.66666667 10.486561,2.66666667 C9.90067116,2.66887842 9.33440364,2.87381974 8.88766368,3.24533333 C8.67062472,2.99395171 8.42549834,2.76722419 8.1568824,2.56940351 C8.79493189,2.00198643 9.62499452,1.68659287 10.486561,1.68421053 C12.0223794,1.68572229 13.3786891,2.66602023 13.8339192,4.10357562 C14.2891492,5.541131 13.7374785,7.10177474 12.4724015,7.95522807 C14.5952812,8.75553398 15.9971039,10.7532903 16,12.9824561 Z M7.4601842,8.93768421 C9.40772362,9.67755364 10.7593416,11.4350235 10.9486874,13.4736842 L9.93421465,13.4736842 C9.68260134,11.2661053 7.79399787,9.54385965 5.47434371,9.54385965 C3.15468956,9.54385965 1.26608608,11.2661053 1.01347033,13.4736842 L0,13.4736842 C0.189116633,11.4349368 1.54081568,9.67736161 3.48850323,8.93768421 C2.22117848,8.08494371 1.66785065,6.52296106 2.1233502,5.08400969 C2.57884975,3.64505833 3.93708426,2.66429075 5.47434371,2.66429075 C7.01160316,2.66429075 8.36983768,3.64505833 8.82533723,5.08400969 C9.28083677,6.52296106 8.72750895,8.08494371 7.4601842,8.93768421 Z M5.47434371,3.64912281 C4.09025813,3.64912281 2.96823507,4.7487743 2.96823507,6.10526316 C2.96823507,7.46175202 4.09025813,8.56140351 5.47434371,8.56140351 C6.8584293,8.56140351 7.98045235,7.46175202 7.98045235,6.10526316 C7.98045235,4.7487743 6.8584293,3.64912281 5.47434371,3.64912281 Z" id="Shape" fill="#595959"></path>
            </g>
        </g>
    </g>
</svg>