<?xml version="1.0" encoding="UTF-8"?>
<svg width="16px" height="16px" viewBox="0 0 16 16" version="1.1" xmlns="http://www.w3.org/2000/svg" xmlns:xlink="http://www.w3.org/1999/xlink">
    <!-- Generator: Sketch 48.1 (47250) - http://www.bohemiancoding.com/sketch -->
    <title>icon-message</title>
    <desc>Created with Sketch.</desc>
    <defs></defs>
    <g id="主界面" stroke="none" stroke-width="1" fill="none" fill-rule="evenodd" transform="translate(-291.000000, -118.000000)">
        <g id="icon-message" transform="translate(291.000000, 118.000000)" fill-rule="nonzero">
            <rect id="Rectangle-path" fill="#000000" opacity="0" x="0" y="0" width="16" height="16"></rect>
            <path d="M9.424,0.504 C9.21325395,0.40398675 8.96364291,0.435188129 8.784,0.584 L4.056,4.448 L1.264,4.448 C0.93262915,4.448 0.664,4.71662915 0.664,5.048 L0.664,10.952 C0.664,11.1111299 0.727214104,11.2637422 0.839735931,11.3762641 C0.952257758,11.4887859 1.10487011,11.552 1.264,11.552 L4.056,11.552 L8.8,15.416 C8.97944791,15.5603103 9.22565579,15.5891875 9.43362586,15.4903165 C9.64159592,15.3914454 9.77463218,15.1822719 9.776,14.952 L9.776,1.048 C9.77508136,0.813452692 9.63757649,0.600945165 9.424,0.504 Z M1.864,5.648 L3.864,5.648 L3.864,10.352 L1.864,10.352 L1.864,5.648 Z M8.56,13.648 L4.664,10.448 L4.664,5.496 L8.56,2.296 L8.56,13.688 L8.56,13.648 Z M12.752,2.672 C12.6459336,2.5701223 12.4925163,2.53466565 12.3525033,2.57967138 C12.2124904,2.62467711 12.1084671,2.74288543 12.081628,2.88748421 C12.054789,3.03208299 12.1094636,3.1797473 12.224,3.272 C13.5812863,4.49688965 14.3499182,6.2437804 14.336,8.072 C14.3478074,9.81662799 13.6556149,11.4923107 12.416,12.72 C12.256942,12.8746397 12.2533603,13.128942 12.408,13.288 C12.5626397,13.447058 12.816942,13.4506397 12.976,13.296 C14.3675257,11.9181386 15.1460068,10.0382507 15.136,8.08 C15.1519136,6.01922329 14.2840049,4.0504103 12.752,2.672 Z" id="Shape" fill="#1F88D9"></path>
            <path d="M11.08,4.424 C10.9050803,4.30539492 10.6680768,4.34332914 10.5389145,4.5106049 C10.4097523,4.67788067 10.4330045,4.91677177 10.592,5.056 C11.4800002,5.81146664 11.9748493,6.93076831 11.936,8.096 C11.9629384,9.19450147 11.5275791,10.2538756 10.736,11.016 C10.5815664,11.1643349 10.5713415,11.4079801 10.7128037,11.5687327 C10.854266,11.7294853 11.097234,11.7503208 11.264,11.616 C12.2243817,10.7001272 12.7556346,9.42279779 12.728,8.096 C12.7681218,6.68458206 12.1611629,5.33218343 11.08,4.424 Z" id="Shape" fill="#1F88D9"></path>
        </g>
    </g>
</svg>