<?xml version="1.0" encoding="UTF-8"?>
<svg width="13px" height="15px" viewBox="0 0 13 15" version="1.1" xmlns="http://www.w3.org/2000/svg" xmlns:xlink="http://www.w3.org/1999/xlink">
    <!-- Generator: Sketch 48.1 (47250) - http://www.bohemiancoding.com/sketch -->
    <title>icon-link</title>
    <desc>Created with Sketch.</desc>
    <defs>
        <polygon id="path-1" points="0 0 13 0 13 15 0 15"></polygon>
    </defs>
    <g id="主界面" stroke="none" stroke-width="1" fill="none" fill-rule="evenodd" transform="translate(-25.000000, -306.000000)">
        <g id="icon-link" transform="translate(25.000000, 306.000000)">
            <mask id="mask-2" fill="white">
                <use xlink:href="#path-1"></use>
            </mask>
            <g id="Clip-2"></g>
            <path d="M10.5470706,9.93797896 C9.65817561,9.93797896 8.88555096,10.4332073 8.45533011,11.1657538 L4.39092117,8.89524827 C4.70893645,8.46852582 4.905744,7.94083357 4.905744,7.36183889 C4.905744,6.88329271 4.76912695,6.44055159 4.54466989,6.05873358 L8.39782648,3.72512484 C8.81289062,4.51700681 9.61520864,5.06202104 10.5470706,5.06202104 C11.8995771,5.06202104 13,3.92689858 13,2.53095128 C13,1.13509876 11.8995771,0 10.5470706,0 C9.1946789,0 8.094256,1.13509876 8.094256,2.53095128 C8.094256,2.73765385 8.12518946,2.93601533 8.17068255,3.12845274 L4.16485658,5.55445324 C3.72244147,5.10829986 3.11897486,4.83088761 2.45283755,4.83088761 C1.1004229,4.83088761 0,5.96598637 0,7.36183889 C0,8.7577862 1.1004229,9.89290865 2.45283755,9.89290865 C3.01375056,9.89290865 3.5249909,9.6899027 3.93872309,9.36178044 L8.20827577,11.7466679 C8.1411729,11.9771615 8.094256,12.2162569 8.094256,12.4690487 C8.094256,13.8649012 9.1946789,15 10.5470706,15 C11.8995771,15 13,13.8649012 13,12.4690487 C13,11.0730777 11.8995771,9.93797896 10.5470706,9.93797896 Z M10.5616652,1.03185812 C11.3549887,1.03185812 12,1.69772254 12,2.51587348 C12,3.33405221 11.3549887,4 10.5616652,4 C9.7684494,4 9.12346502,3.33405221 9.12346502,2.51587348 C9.12346502,1.69772254 9.7684494,1.03185812 10.5616652,1.03185812 Z M2.49995787,8.86106148 C1.67266803,8.86106148 1,8.16650126 1,7.31320513 C1,6.45993797 1.67266803,5.76537776 2.49995787,5.76537776 C3.32733197,5.76537776 4,6.45993797 4,7.31320513 C4,8.16650126 3.32733197,8.86106148 2.49995787,8.86106148 Z M10.5170068,14 C9.71528466,14 9.06338354,13.3268826 9.06338354,12.4999579 C9.06338354,11.6730051 9.71528466,11 10.5170068,11 C11.3188378,11 11.9707662,11.6730051 11.9707662,12.4999579 C11.9707662,13.3268826 11.3188378,14 10.5170068,14 Z" id="Fill-1" fill="#7EC6EF" mask="url(#mask-2)"></path>
            <rect id="Rectangle-14" fill="#7EC6EF" mask="url(#mask-2)" transform="translate(6.400437, 4.716179) rotate(59.000000) translate(-6.400437, -4.716179) " x="5.90043729" y="2.21617884" width="1" height="5"></rect>
            <rect id="Rectangle-14-Copy" fill="#7EC6EF" mask="url(#mask-2)" transform="translate(6.325967, 10.307073) rotate(119.000000) translate(-6.325967, -10.307073) " x="5.82596657" y="7.05707313" width="1" height="6.5"></rect>
        </g>
    </g>
</svg>