<?xml version="1.0" encoding="UTF-8"?>
<svg width="13px" height="12px" viewBox="0 0 13 12" version="1.1" xmlns="http://www.w3.org/2000/svg" xmlns:xlink="http://www.w3.org/1999/xlink">
    <!-- Generator: Sketch 48.1 (47250) - http://www.bohemiancoding.com/sketch -->
    <title>icon-Email</title>
    <desc>Created with Sketch.</desc>
    <defs></defs>
    <g id="账户密码登录" stroke="none" stroke-width="1" fill="none" fill-rule="evenodd" transform="translate(-551.000000, -380.000000)">
        <g id="Group-4" transform="translate(-74.000000, -12.000000)" fill="#BFBFBF" fill-rule="nonzero">
            <g id="icon-Email" transform="translate(625.000000, 392.000000)">
                <path d="M11.5611532,0 L1.43884677,0 C0.645680551,0 0,0.810074867 0,1.80518618 L0,10.1948138 C0,11.1899251 0.645680551,12 1.43884677,12 L11.5611532,12 C12.3543194,12 13,11.1899251 13,10.1948138 L13,1.80518618 C13,0.810074867 12.3543194,0 11.5611532,0 Z M12.0714286,10.1881582 C12.0714286,10.5846722 11.8154344,10.9090909 11.5025508,10.9090909 L1.49744918,10.9090909 C1.18456563,10.9090909 0.928571429,10.5846722 0.928571429,10.1881582 L0.928571429,1.81184185 C0.928571429,1.41532784 1.18456563,1.09090909 1.49744918,1.09090909 L11.5025508,1.09090909 C11.8154344,1.09090909 12.0714286,1.41532784 12.0714286,1.81184185 L12.0714286,10.1881582 Z" id="Shape"></path>
                <path d="M10.3974769,3.07219832 L6.49839743,5.99147068 L2.59931793,3.07219832 C2.41698276,2.93502896 2.17603934,3.00070996 2.06043973,3.21709386 C1.94485442,3.43347776 2.0002003,3.71941424 2.18253547,3.85660058 L6.28511264,6.92851164 C6.35023132,6.97682147 6.42186044,7 6.49348956,7 L6.50651044,7 C6.57813956,7 6.64978299,6.97682147 6.71488736,6.92851164 L10.8174645,3.85660058 C10.9997997,3.71943122 11.0551456,3.43349474 10.9395603,3.21709386 C10.8207126,2.99877417 10.5797692,2.93502896 10.397434,3.07219832 L10.3974769,3.07219832 Z" id="Shape"></path>
            </g>
        </g>
    </g>
</svg>