<?xml version="1.0" encoding="UTF-8"?>
<svg width="16px" height="16px" viewBox="0 0 16 16" version="1.1" xmlns="http://www.w3.org/2000/svg" xmlns:xlink="http://www.w3.org/1999/xlink">
    <!-- Generator: Sketch 48.1 (47250) - http://www.bohemiancoding.com/sketch -->
    <title>icon-quit</title>
    <desc>Created with Sketch.</desc>
    <defs></defs>
    <g id="Notification" stroke="none" stroke-width="1" fill="none" fill-rule="evenodd" transform="translate(-139.000000, -862.000000)">
        <g id="用户名" transform="translate(125.000000, 752.000000)" fill-rule="nonzero">
            <g id="icon-quit" transform="translate(14.000000, 110.000000)">
                <rect id="Rectangle-path" fill="#000000" opacity="0" x="0" y="0" width="16" height="16"></rect>
                <path d="M8.00000992,16 C3.58867112,16 1.56252823e-08,12.4112007 0,8.00000155 C0,3.58933575 3.58867112,3.12325762e-06 8.00000992,3.12325762e-06 C9.98952246,-0.00175591029 11.907971,0.739564433 13.3793499,2.07866938 C13.5102207,2.19746821 13.5885242,2.36339996 13.5970263,2.53994457 C13.6055285,2.71648917 13.5435326,2.88917754 13.4246833,3.02000253 C13.1773497,3.29333581 12.7560158,3.31266913 12.4826821,3.06533586 C11.2563972,1.94973328 9.65782353,1.33208183 8.00000992,1.3333362 C4.32400536,1.3333362 1.33333499,4.32400228 1.33333499,8.00000155 C1.33333499,11.6766675 4.32400536,14.6666669 8.00000992,14.6666669 C9.65601197,14.6666669 11.2433473,14.0560004 12.4693488,12.9466673 C12.6002824,12.8278492 12.7731035,12.7659964 12.9496956,12.774751 C13.1262876,12.7835055 13.2921436,12.8621482 13.4106833,12.9933339 C13.5293673,13.1243303 13.5911311,13.2971207 13.5823787,13.473669 C13.5736263,13.6502174 13.4950751,13.8160516 13.3640166,13.9346671 C11.8926814,15.2666668 9.98734571,16 8.00000992,16 Z M13.8436172,8.63213476 L5.33333995,8.63213476 C4.96667282,8.63213476 4.66667246,8.33213481 4.66667246,7.96546823 C4.66667246,7.59880164 4.96667284,7.2988017 5.33333995,7.2988017 L13.8436172,7.2988017 L12.390682,5.80400199 C12.1313797,5.54327504 12.1313797,5.12206245 12.390682,4.86133551 C12.6514093,4.60203351 13.0726225,4.60203351 13.3333499,4.86133551 L15.8053529,7.40466834 C15.9409025,7.54041859 16.0112748,7.72806157 15.9984198,7.91946825 C16.0005267,7.95005422 16.0005267,7.98074891 15.9984198,8.01133488 C16.011314,8.20278686 15.9409387,8.39048645 15.8053529,8.52626812 L13.3333499,11.069601 C13.0726225,11.328903 12.6514093,11.328903 12.390682,11.069601 C12.1313797,10.808874 12.1313797,10.3876614 12.390682,10.1269345 L13.8436172,8.63200143 L13.8436172,8.63213476 Z" id="Shape" fill="#595959"></path>
            </g>
        </g>
    </g>
</svg>