<?xml version="1.0" encoding="UTF-8"?>
<svg width="32px" height="32px" viewBox="0 0 32 32" version="1.1" xmlns="http://www.w3.org/2000/svg" xmlns:xlink="http://www.w3.org/1999/xlink">
    <!-- Generator: Sketch 48.1 (47250) - http://www.bohemiancoding.com/sketch -->
    <title>icon-announcement</title>
    <desc>Created with Sketch.</desc>
    <defs></defs>
    <g id="Notification" stroke="none" stroke-width="1" fill="none" fill-rule="evenodd" transform="translate(-73.000000, -193.000000)">
        <g id="通知" transform="translate(51.000000, 132.000000)">
            <g id="icon-announcement" transform="translate(22.000000, 61.000000)">
                <circle id="Oval" fill="#F56C6C" cx="16" cy="16" r="16"></circle>
                <path d="M22.3333333,21.6733333 L10.3333333,21.6733333 C9.59695366,21.6733333 9,21.0763797 9,20.34 L9,12.34 C9.00006393,12.0802883 9.07645095,11.8263217 9.21966666,11.6096667 L15.453,17.6796667 C15.6902503,17.903068 16.0077722,18.0210116 16.3333333,18.0066667 C16.6575581,18.0086235 16.9715881,17.8934516 17.2176667,17.6823333 L23.4493333,11.6136667 C23.590959,11.8294497 23.6664945,12.0818913 23.6666667,12.34 L23.6666667,20.34 C23.6666667,21.0763797 23.069713,21.6733333 22.3333333,21.6733333 Z M16.3333333,16.8816667 C15.9666538,16.880887 15.6166835,16.7282276 15.3666667,16.46 L10.0706667,11 L22.608,11 L17.3,16.4696667 C17.0384348,16.7197313 16.6948693,16.8661613 16.3333333,16.8816667 Z" id="Shape" fill="#FFFFFF" fill-rule="nonzero"></path>
            </g>
        </g>
    </g>
</svg>