<?xml version="1.0" encoding="UTF-8"?>
<svg width="14px" height="14px" viewBox="0 0 14 14" version="1.1" xmlns="http://www.w3.org/2000/svg" xmlns:xlink="http://www.w3.org/1999/xlink">
    <!-- Generator: Sketch 48.1 (47250) - http://www.bohemiancoding.com/sketch -->
    <title>icon-no</title>
    <desc>Created with Sketch.</desc>
    <defs></defs>
    <g id="账户余额-查看到底" stroke="none" stroke-width="1" fill="none" fill-rule="evenodd" transform="translate(-835.000000, -1110.000000)">
        <g id="icon-no" transform="translate(834.000000, 1109.000000)" fill-rule="nonzero">
            <rect id="Rectangle-path" fill="#000000" opacity="0" x="0" y="0" width="16" height="16"></rect>
            <path d="M8.01796875,10.0310625 C10.6502344,10.0310625 13.1324687,11.1760625 14.8282031,13.1725469 C15.0961875,13.4873906 15.0604375,13.9533281 14.7468281,14.2335156 C14.6186406,14.3480938 14.4497031,14.4112344 14.27125,14.4112344 C14.047875,14.4112344 13.8346406,14.3162344 13.6861875,14.1505938 C12.253125,12.4809688 10.1800156,11.5225625 7.99985937,11.5225625 C5.80407812,11.5225625 3.730875,12.4811719 2.311875,14.1525156 C2.16867187,14.3206875 1.9635625,14.4172344 1.74915625,14.4172344 C1.57335937,14.4172344 1.40353125,14.352 1.2709375,14.2335 C1.11276562,14.099125 1.01920312,13.9169844 1.00560937,13.7187812 C0.992375,13.5252812 1.05714062,13.3383125 1.18796875,13.1923281 C2.913,11.18275 5.40195312,10.0310625 8.01796875,10.0310625 Z M12.2870781,6.1785 C11.6032344,6.1785 11.0256094,5.58717188 11.0256094,4.88728125 L11.0256094,3.00164062 C11.0256094,2.30167187 11.60325,1.71029687 12.2870781,1.71029687 C12.970875,1.71029687 13.5485469,2.30167187 13.5485469,3.00164062 L13.5485469,4.8873125 C13.5485469,5.59928125 12.9826719,6.1785 12.2870781,6.1785 Z M3.72604688,6.1785 C3.04228125,6.1785 2.464625,5.58717188 2.464625,4.88728125 L2.464625,3.00164062 C2.464625,2.30167187 3.04228125,1.71029687 3.72604688,1.71029687 C4.40996875,1.71029687 4.98770313,2.30167187 4.98770313,3.00164062 L4.98770313,4.8873125 C4.98770313,5.58717188 4.40996875,6.1785 3.72604688,6.1785 Z" id="Shape" fill="#808080"></path>
        </g>
    </g>
</svg>