<?xml version="1.0" encoding="UTF-8"?>
<svg width="16px" height="16px" viewBox="0 0 16 16" version="1.1" xmlns="http://www.w3.org/2000/svg" xmlns:xlink="http://www.w3.org/1999/xlink">
    <!-- Generator: Sketch 48.1 (47250) - http://www.bohemiancoding.com/sketch -->
    <title>icon-sitting</title>
    <desc>Created with Sketch.</desc>
    <defs></defs>
    <g id="Notification" stroke="none" stroke-width="1" fill="none" fill-rule="evenodd" transform="translate(-140.000000, -817.000000)">
        <g id="用户名" transform="translate(125.000000, 752.000000)" fill-rule="nonzero">
            <g id="icon-sitting" transform="translate(15.000000, 65.000000)">
                <rect id="Rectangle-path" fill="#000000" opacity="0" x="0" y="0" width="16" height="16"></rect>
                <path d="M9.45762181,1.85264451 L9.45762181,2.20495682 C9.45762181,2.85328062 9.8827605,3.52042521 10.476882,3.81448192 L11.4870952,4.38089893 C11.7765954,4.56642509 12.1379858,4.66712038 12.5104588,4.66712038 C12.8424792,4.66712038 13.1592654,4.5871522 13.4254375,4.43818522 L13.7371994,4.26251373 L14.7736971,6.01216892 L14.461919,6.18879357 C13.8486052,6.53325446 13.4781032,7.27828321 13.5792829,7.95528247 C13.5792829,7.95723725 13.6035802,8.13292491 13.6035802,8.42106882 C13.6035802,8.70729027 13.5792829,8.88192783 13.5792829,8.88192783 C13.4781032,9.56385442 13.8485891,10.3099171 14.461919,10.6552504 L14.7736971,10.8309703 L13.7371994,12.5806094 L13.4254375,12.4059072 C13.1582638,12.2559547 12.8424792,12.1760027 12.5104588,12.1760027 C12.1379859,12.1760027 11.7765954,12.2766495 11.4860775,12.4612548 L10.476882,13.0276557 C9.88276052,13.3217285 9.45762183,13.9888247 9.45762183,14.6371808 L9.45762183,14.9895092 L7.38464264,14.9895092 L7.38464264,14.6371808 C7.38464264,13.9888247 6.95850233,13.3217285 6.36436472,13.0276557 L5.35618701,12.4612548 C5.06571758,12.2766495 4.70434324,12.1760027 4.33185416,12.1760027 C3.99984987,12.1760027 3.68309601,12.2559547 3.41684314,12.4049217 L3.10506507,12.5806255 L2.06858356,10.8309865 L2.38034546,10.6552665 C2.9916883,10.3099332 3.36317577,9.56387057 3.26196381,8.88788909 C3.26196381,8.8858697 3.23865193,8.71021435 3.23865193,8.42108497 C3.23865193,8.13589746 3.26096219,7.96119527 3.26096219,7.96119527 C3.36317577,7.27829937 2.9916883,6.53223669 2.37934384,6.18688726 L2.06856739,6.01218507 L3.10504891,4.26252988 L3.41482374,4.43715128 C3.68201361,4.58716835 3.997782,4.66713653 4.32983475,4.66713653 C4.70332546,4.66713653 5.06466749,4.5664574 5.35421607,4.38091508 L6.36436471,3.81449807 C6.95850231,3.52042521 7.38464262,2.85329677 7.38464262,2.20497297 L7.38464262,1.85264451 L9.45762181,1.85264451 Z M8.4211403,11.4526219 C10.1358146,11.4526219 11.5306172,10.0927429 11.5306172,8.42106879 C11.5306172,6.74939468 10.1358146,5.38951569 8.4211403,5.38951569 C6.70646597,5.38951569 5.31164728,6.74941085 5.31164728,8.42106879 C5.31166343,10.0927429 6.70648212,11.4526219 8.4211403,11.4526219 Z M9.97591105,0.842105263 L6.86643418,0.842105263 C6.58100515,0.842105263 6.34814496,1.0691341 6.34814496,1.34734257 L6.34814496,2.20494065 C6.34814496,2.48226059 6.13562408,2.80596207 5.87651178,2.92234403 L4.80555518,3.52336544 C4.67804266,3.61121735 4.50392254,3.65659727 4.3298509,3.65659727 C4.18812185,3.65659727 4.04644127,3.62501387 3.93404995,3.56186326 L3.17395058,3.13355695 C3.09299717,3.08817703 3.00390156,3.06643216 2.91682535,3.06643216 C2.73664706,3.06643216 2.56152534,3.15722431 2.4653861,3.31911543 L0.910663815,5.94405864 C0.768950913,6.18490017 0.853959271,6.49574211 1.10095522,6.63488674 L1.86107075,7.06317689 C2.1080667,7.20133604 2.2771141,7.54082114 2.23557922,7.8151039 C2.23557922,7.8151039 2.20223502,8.04306973 2.20223502,8.42106879 C2.20223502,8.80002101 2.23557922,9.02696907 2.23557922,9.02696907 C2.27711408,9.30230191 2.10805054,9.64080154 1.86107075,9.77989769 L1.10095522,10.2072024 C0.853943122,10.3473648 0.768950929,10.6572213 0.910663815,10.8980628 L2.46640387,13.523006 C2.56252696,13.6848648 2.73666323,13.7756893 2.91682535,13.7756893 C3.00388541,13.7756893 3.09298101,13.7539121 3.17395058,13.7085321 L3.9351162,13.280242 C4.04645743,13.2171398 4.188138,13.1864611 4.33188646,13.1864611 C4.50395486,13.1864611 4.68009436,13.2309202 4.80765535,13.3197414 L5.87656024,13.9197612 C6.13567254,14.0361917 6.34819342,14.3598608 6.34819342,14.6371484 L6.34819342,15.4946981 C6.34819342,15.7730035 6.58105362,16 6.86648264,16 L9.97595951,16 C10.2604031,16 10.4941841,15.7729873 10.4941841,15.4946981 L10.4941841,14.6371484 C10.4941841,14.3598608 10.7047341,14.0361917 10.9638302,13.9197612 L12.0347868,13.3197414 C12.1623155,13.2309202 12.3373726,13.1864611 12.5105073,13.1864611 C12.6531895,13.1864611 12.7949023,13.2171237 12.9072775,13.280242 L13.6674415,13.7085321 C13.7484434,13.7539282 13.8375067,13.7756893 13.9255522,13.7756893 C14.1047127,13.7756893 14.2798344,13.6848648 14.3749559,13.523006 L15.9297105,10.8980628 C16.0734751,10.6572374 15.9874166,10.3473648 15.740453,10.2072024 L14.980289,9.77989769 C14.7332931,9.64080154 14.5652634,9.30230191 14.6057644,9.02696907 C14.6057644,9.02696907 14.6402233,8.80002101 14.6402233,8.42106879 C14.6402233,8.04306973 14.6057644,7.8151039 14.6057644,7.8151039 C14.5652634,7.54082114 14.7332931,7.20230535 14.980289,7.06317689 L15.7414546,6.63488674 C15.9884506,6.49574211 16.0734751,6.18490017 15.9307283,5.94405864 L14.3749559,3.31911543 C14.2798344,3.15722431 14.1047127,3.06643216 13.9255522,3.06643216 C13.8375067,3.06643216 13.7484434,3.08817703 13.6674415,3.13455857 L12.9072775,3.56186326 C12.7959524,3.62501389 12.6542557,3.65659727 12.5105073,3.65659727 C12.3384065,3.65659727 12.1622993,3.6112012 12.0347868,3.52336544 L10.9638302,2.92234403 C10.7047341,2.80596207 10.4941841,2.48226059 10.4941841,2.20494065 L10.4941841,1.34735873 C10.4941356,1.06915025 10.2603546,0.842105263 9.97591105,0.842105263 Z M8.4211403,10.4420665 C7.27536925,10.4420665 6.34814494,9.53711755 6.34814494,8.42105264 C6.34814494,7.30498773 7.27536925,6.40002262 8.4211403,6.40002262 C9.56495658,6.40002262 10.4941357,7.30498771 10.4941357,8.42105264 C10.4941357,9.53711757 9.56495658,10.4420665 8.4211403,10.4420665 Z" id="Shape" fill="#595959"></path>
            </g>
        </g>
    </g>
</svg>