<?xml version="1.0" encoding="UTF-8"?>
<svg width="16px" height="12px" viewBox="0 0 16 12" version="1.1" xmlns="http://www.w3.org/2000/svg" xmlns:xlink="http://www.w3.org/1999/xlink">
    <!-- Generator: Sketch 48.1 (47250) - http://www.bohemiancoding.com/sketch -->
    <title>icon-anccount</title>
    <desc>Created with Sketch.</desc>
    <defs></defs>
    <g id="主界面" stroke="none" stroke-width="1" fill="none" fill-rule="evenodd" transform="translate(-23.000000, -477.000000)">
        <g id="左侧导航" transform="translate(0.000000, 64.000000)" fill="#7FC7EF" fill-rule="nonzero">
            <g id="icon-anccount" transform="translate(23.000000, 413.000000)">
                <path d="M15.989,11.5 C15.989,11.671 15.954,11.833 15.938,12 L14.938,12 C14.957,11.834 14.989,11.671 14.989,11.5 C14.9867924,9.05491351 13.0305753,7.06004306 10.586,7.01 C10.2867265,6.73695281 9.96565998,6.48879515 9.626,6.268 C9.68,6.143 9.709,6.007 9.751,5.877 C9.986,5.95 10.23,6 10.489,6 C11.8697119,6 12.989,4.88071187 12.989,3.5 C12.989,2.11928813 11.8697119,1 10.489,1 C9.90453828,1.00225124 9.33965103,1.21085224 8.894,1.589 C8.67749007,1.33312942 8.43296119,1.10235319 8.165,0.901 C8.80149424,0.323450474 9.6295336,0.00242488848 10.489,0 C12.0210749,0.00153875594 13.3740786,0.999342023 13.828199,2.46256804 C14.2823194,3.92579405 13.7319934,5.51430644 12.47,6.383 C14.5877052,7.19759709 15.986111,9.23102765 15.989,11.5 Z M7.47,7.383 C9.4127923,8.13608138 10.7611157,9.92493465 10.95,12 L9.938,12 C9.687,9.753 7.803,8 5.489,8 C3.175,8 1.291,9.753 1.039,12 L0.028,12 C0.216655661,9.92484643 1.56505994,8.13588593 3.508,7.383 C2.24376436,6.51503199 1.69178527,4.92515679 2.14617453,3.46050987 C2.6005638,1.99586294 3.95548762,0.997581659 5.489,0.997581659 C7.02251238,0.997581659 8.3774362,1.99586294 8.83182547,3.46050987 C9.28621473,4.92515679 8.73423564,6.51503199 7.47,7.383 Z M5.489,2 C4.10828813,2 2.989,3.11928813 2.989,4.5 C2.989,5.88071187 4.10828813,7 5.489,7 C6.86971187,7 7.989,5.88071187 7.989,4.5 C7.989,3.11928813 6.86971187,2 5.489,2 Z" id="Shape"></path>
            </g>
        </g>
    </g>
</svg>