<?xml version="1.0" encoding="UTF-8"?>
<svg width="28px" height="28px" viewBox="0 0 28 28" version="1.1" xmlns="http://www.w3.org/2000/svg" xmlns:xlink="http://www.w3.org/1999/xlink">
    <!-- Generator: Sketch 48.1 (47250) - http://www.bohemiancoding.com/sketch -->
    <title>icon-conduct</title>
    <desc>Created with Sketch.</desc>
    <defs></defs>
    <g id="主界面" stroke="none" stroke-width="1" fill="none" fill-rule="evenodd" transform="translate(-1334.000000, -326.000000)">
        <g id="icon-conduct" transform="translate(1335.000000, 327.000000)">
            <path d="M17.4669611,12.9915189 C17.4669611,12.5927065 17.1475552,12.2676831 16.7536357,12.2676831 L13.6051649,12.2676831 L13.6051649,11.8519472 C13.620349,11.8216858 13.6323952,11.7913886 13.6408348,11.7593344 L16.6999325,8.51064273 C16.9752289,8.22954144 16.9752289,7.77318215 16.6999325,7.49376606 C16.5644663,7.35568941 16.3853595,7.28 16.1946393,7.28 C16.0034863,7.28 15.8227565,7.35572525 15.6872903,7.49376606 L12.8934625,10.4919406 L10.1000315,7.49724398 C9.96301441,7.35572525 9.78228461,7.28003584 9.59113157,7.28003588 C9.40037529,7.28003588 9.2228554,7.35576113 9.08738926,7.4938019 C8.81007311,7.77318215 8.81007311,8.22954144 9.08576625,8.51067857 L12.1433131,11.7610913 C12.1533035,11.7931455 12.1669367,11.8234427 12.1817601,11.8519831 L12.1817601,12.2677189 L9.03368607,12.2677189 C8.64138954,12.2677189 8.32,12.5910213 8.32,12.9915547 C8.32,13.3888254 8.63980263,13.7136695 9.03368607,13.7136695 L12.1817601,13.7136695 L12.1817601,14.5755819 L9.03368607,14.5755819 C8.64138954,14.5755819 8.32,14.8988125 8.32,15.2976249 C8.32,15.6966884 8.63980263,16.0199189 9.03368607,16.0199189 L12.1817601,16.0199189 L12.1817601,18.1207207 C12.1817601,18.5178121 12.4999397,18.8426561 12.8934625,18.8426561 C13.287382,18.8426561 13.6071486,18.519569 13.6071486,18.1207207 L13.6071486,16.0181979 L16.7535996,16.0181979 C17.1458961,16.0181979 17.466925,15.6949673 17.466925,15.2961549 C17.466925,14.8970915 17.1458961,14.5738609 16.7535996,14.5738609 L13.6051288,14.5738609 L13.6051288,13.7136695 L16.7536357,13.7136695 C17.1459322,13.7136336 17.4669611,13.3905464 17.4669611,12.9915189 Z" id="Path" fill="#F3A7B4"></path>
            <path d="M14.5911425,0.0964004393 C14.0696694,0.0327614329 13.5386606,0 13,0 C5.82029825,0 0,5.82029825 0,13 C0,17.1607673 1.95469627,20.8649908 4.99588228,23.244464 M9.70714766,25.5793353 C10.7588009,25.8538625 11.8623343,26 13,26 C20.1797017,26 26,20.1797017 26,13 C26,8.31651007 23.5233102,4.21148203 19.8081897,1.92317503" id="Oval-5" stroke="#F3A7B4" stroke-width="1.5" stroke-linecap="round"></path>
            <path d="M19.894043,1.92675781 L23.8937988,2.45631239" id="Line-14" stroke="#F3A7B4" stroke-width="1.5" stroke-linecap="round" stroke-linejoin="round"></path>
            <path d="M0.701660156,22.9601074 L4.99047852,23.3320801" id="Line-14-Copy" stroke="#F3A7B4" stroke-width="1.5" stroke-linecap="round" stroke-linejoin="round"></path>
        </g>
    </g>
</svg>