<?xml version="1.0" encoding="UTF-8"?>
<svg width="15px" height="15px" viewBox="0 0 15 15" version="1.1" xmlns="http://www.w3.org/2000/svg" xmlns:xlink="http://www.w3.org/1999/xlink">
    <!-- Generator: Sketch 48.1 (47250) - http://www.bohemiancoding.com/sketch -->
    <title>icon-index</title>
    <desc>Created with Sketch.</desc>
    <defs></defs>
    <g id="主界面" stroke="none" stroke-width="1" fill="none" fill-rule="evenodd" transform="translate(-25.000000, -134.000000)">
        <g id="左侧导航" transform="translate(0.000000, 64.000000)" fill-rule="nonzero">
            <g id="icon-index">
                <g transform="translate(24.000000, 69.000000)">
                    <rect id="Rectangle-path" fill="#000000" opacity="0" x="0" y="0" width="16" height="16"></rect>
                    <path d="M4.08998162,15.0922602 C4.08998162,15.2929707 3.92726565,15.4556867 3.72655508,15.4556867 L3.42088032,15.4556867 C3.22016975,15.4556867 3.05745378,15.2929707 3.05745378,15.0922602 L3.05745376,8.59143479 C3.05745376,8.39072422 3.22016974,8.22800825 3.4208803,8.22800825 L3.72655507,8.22800825 C3.92726563,8.22800825 4.08998161,8.39072422 4.08998161,8.59143479 L4.08998162,15.0922602 Z M7.18756517,15.0922602 C7.18756517,15.2929707 7.0248492,15.4556867 6.82413863,15.4556867 L6.51846387,15.4556867 C6.3177533,15.4556867 6.15503733,15.2929707 6.15503733,15.0922602 L6.15503733,10.6564905 C6.15503733,10.4557799 6.3177533,10.293064 6.51846387,10.293064 L6.82413863,10.293064 C7.0248492,10.293064 7.18756517,10.4557799 7.18756517,10.6564905 L7.18756517,15.0922602 Z M7.18756517,15.0922602 C7.18756517,15.2929707 7.0248492,15.4556867 6.82413863,15.4556867 L3.4208803,15.4556867 C3.22016974,15.4556867 3.05745376,15.2929707 3.05745376,15.0922602 L3.05745376,14.7865854 C3.05745376,14.5858748 3.22016974,14.4231589 3.4208803,14.4231589 L6.82413863,14.4231589 C7.0248492,14.4231589 7.18756517,14.5858748 7.18756517,14.7865854 L7.18756517,15.0922602 Z M10.2851487,10.9621653 C10.2851487,11.1628758 10.1224328,11.3255918 9.9217222,11.3255918 L6.51846387,11.3255918 C6.3177533,11.3255918 6.15503733,11.1628758 6.15503733,10.9621653 L6.15503733,10.6564905 C6.15503733,10.4557799 6.3177533,10.293064 6.51846387,10.293064 L9.9217222,10.293064 C10.1224328,10.293064 10.2851487,10.4557799 10.2851487,10.6564905 L10.2851487,10.9621653 Z M10.2851487,15.0922602 C10.2851487,15.2929707 10.1224328,15.4556867 9.9217222,15.4556867 L9.61604744,15.4556867 C9.41533687,15.4556867 9.2526209,15.2929707 9.2526209,15.0922602 L9.2526209,10.6564905 C9.2526209,10.4557799 9.41533687,10.293064 9.61604744,10.293064 L9.9217222,10.293064 C10.1224328,10.293064 10.2851487,10.4557799 10.2851487,10.6564905 L10.2851487,15.0922602 Z M13.3827158,15.0922602 C13.3827158,15.2929707 13.2199998,15.4556867 13.0192893,15.4556867 L9.61604744,15.4556867 C9.41533687,15.4556867 9.2526209,15.2929707 9.2526209,15.0922602 L9.2526209,14.7865854 C9.2526209,14.5858748 9.41533687,14.4231589 9.61604744,14.4231589 L13.0193058,14.4231589 C13.2200163,14.4231589 13.3827323,14.5858748 13.3827323,14.7865854 L13.3827323,15.0922602 L13.3827158,15.0922602 Z M13.3827158,15.0922602 C13.3827158,15.2929707 13.2199998,15.4556867 13.0192893,15.4556867 L12.7136145,15.4556867 C12.5129039,15.4556867 12.3501879,15.2929707 12.3501879,15.0922602 L12.3501879,8.59143479 C12.3501879,8.39072422 12.5129039,8.22800825 12.7136145,8.22800825 L13.0192892,8.22800825 C13.2199998,8.22800825 13.3827158,8.39072422 13.3827158,8.59143479 L13.3827158,15.0922602 Z M15.1136338,7.39146641 L8.82620592,1.1067642 C8.75677493,1.03733321 8.66624868,1.00211387 8.5752599,1.00061061 L8.57525988,1.00032978 L7.85864881,1.00032978 L7.85864881,1.00056105 C7.76731311,1.00181652 7.67637387,1.03708542 7.60667858,1.1067642 L1.32653572,7.39146641 C1.18460113,7.53338449 1.18460113,7.76349956 1.32653572,7.90543415 L1.54267539,8.12157382 C1.68460998,8.26350841 1.91470854,8.26350841 2.05664313,8.12157382 L8.14094864,2.03285763 L8.29481023,2.03285763 L14.3835264,8.12157382 C14.525461,8.26350841 14.7555596,8.26350841 14.8974942,8.12157382 L15.1136338,7.90543415 C15.2555684,7.76349956 15.2555684,7.53338447 15.1136338,7.39146641 Z" id="Shape" fill="#7EC6EF"></path>
                </g>
            </g>
        </g>
    </g>
</svg>