<?xml version="1.0" encoding="UTF-8"?>
<svg width="13px" height="15px" viewBox="0 0 13 15" version="1.1" xmlns="http://www.w3.org/2000/svg" xmlns:xlink="http://www.w3.org/1999/xlink">
    <!-- Generator: Sketch 48.1 (47250) - http://www.bohemiancoding.com/sketch -->
    <title>icon-money</title>
    <desc>Created with Sketch.</desc>
    <defs>
        <polygon id="path-1" points="0 0 13 0 13 15 0 15"></polygon>
    </defs>
    <g id="主界面" stroke="none" stroke-width="1" fill="none" fill-rule="evenodd" transform="translate(-26.000000, -178.000000)">
        <g id="左侧导航" transform="translate(0.000000, 64.000000)">
            <g id="icon-money" transform="translate(26.000000, 114.000000)">
                <mask id="mask-2" fill="white">
                    <use xlink:href="#path-1"></use>
                </mask>
                <g id="Clip-2"></g>
                <path d="M2.37604872,9.48386719 L11.02495,9.48386719 L11.02495,8.70125 L2.37604872,8.70125 L2.37604872,9.48386719 Z M2.35493206,11.7037109 L11.0038531,11.7037109 L11.0238615,12.5429492 L2.37604872,12.5429492 L2.35493206,11.7037109 Z M7.02568982,6.42578125 L11.02495,6.42578125 L11.02495,5.63019531 L7.02568982,5.63019531 L7.02568982,6.42578125 Z M7.88496137,3.36761719 L11.02495,3.36761719 L11.02495,2.55722656 L7.88496137,2.55722656 L7.88496137,3.36761719 Z M11.7466169,15 L1.25338306,15 C0.561877069,15 0,14.4177344 0,13.703457 L0,1.29654297 C0,0.582265625 0.561877069,0 1.25338306,0 L11.7466169,0 C12.4382021,0 13,0.582265625 13,1.29654297 L13,13.7025391 C13,14.4177344 12.4371334,15 11.7466169,15 Z M1.09149534,0.784609375 C0.949794101,0.784609375 0.831208373,0.931464844 0.831208373,1.10404297 L0.831208373,13.895957 C0.831208373,14.0695898 0.950803425,14.2153906 1.09149534,14.2153906 L11.9094348,14.2153906 C12.0512152,14.2153906 12.169801,14.0685352 12.169801,13.895957 L12.169801,1.10404297 C12.169801,0.930488281 12.0501267,0.784609375 11.9094348,0.784609375 L1.09149534,0.784609375 Z M5.74818192,4.81384766 C5.86176061,5.00527344 5.92004415,5.22949219 5.92004415,5.48636719 C5.92004415,5.87921875 5.80145842,6.20742188 5.56426717,6.46941406 C5.32600723,6.73126953 4.98432122,6.88697266 4.53499372,6.93359375 L4.53499372,7.60710938 L3.9640921,7.60710938 L3.9640921,6.9365625 C3.21729096,6.86019531 2.75399125,6.43166016 2.57611265,5.65109375 L3.45950904,5.42289063 C3.54098725,5.91392578 3.81132788,6.15990234 4.27169857,6.15990234 C4.48676384,6.15990234 4.6456236,6.10732422 4.74712997,6.0021875 C4.84863635,5.89607422 4.8998942,5.77011719 4.8998942,5.62126953 C4.8998942,5.46654297 4.84863635,5.35048828 4.74712997,5.27214844 C4.64663292,5.19271484 4.4204255,5.09261719 4.07169401,4.970625 C3.75807117,4.86251953 3.51183559,4.75630859 3.33496632,4.65019531 C3.15900742,4.54605469 3.01528754,4.39925781 2.90473682,4.20982422 C2.7942059,4.0203125 2.73992008,3.79914063 2.73992008,3.54919922 C2.73992008,3.21990234 2.83934843,2.92228516 3.03547402,2.65945313 C3.23338078,2.39554687 3.54191741,2.23388672 3.96510143,2.17537109 L3.96510143,1.65558594 L4.53600304,1.65558594 L4.53600304,2.17537109 C5.17425233,2.25074219 5.58839201,2.60681641 5.77733359,3.24462891 L4.98833873,3.56400391 C4.83456518,3.12667969 4.59832388,2.90740234 4.27571608,2.90740234 C4.11491684,2.90740234 3.98518896,2.95601563 3.88870942,3.05419922 C3.79031018,3.15238281 3.74097203,3.27048828 3.74097203,3.40935547 C3.74097203,3.55117188 3.78821237,3.65927734 3.88275243,3.73566406 C3.97715395,3.81103516 4.17814805,3.90533203 4.48777317,4.01642578 C4.82653016,4.13841797 5.09386261,4.25544922 5.28581237,4.36255859 C5.47885062,4.47166016 5.63161484,4.62242188 5.74818192,4.81384766 Z" id="Fill-1" fill="#7EC6EF" mask="url(#mask-2)"></path>
            </g>
        </g>
    </g>
</svg>