<?xml version="1.0" encoding="UTF-8"?>
<svg width="15px" height="14px" viewBox="0 0 15 14" version="1.1" xmlns="http://www.w3.org/2000/svg" xmlns:xlink="http://www.w3.org/1999/xlink">
    <!-- Generator: Sketch 48.1 (47250) - http://www.bohemiancoding.com/sketch -->
    <title>icon-sitting</title>
    <desc>Created with Sketch.</desc>
    <defs></defs>
    <g id="主界面" stroke="none" stroke-width="1" fill="none" fill-rule="evenodd" transform="translate(-24.000000, -434.000000)">
        <g id="左侧导航" transform="translate(0.000000, 64.000000)" fill="#7EC6EF">
            <g id="icon-sitting" transform="translate(24.000000, 370.000000)">
                <path d="M9.74800781,13.9999445 C9.48050781,14.0025225 9.22386719,13.8942655 9.03900391,13.7009537 C8.80599609,13.4479766 8.06601563,12.7909548 7.46101563,12.7909548 C6.85996094,12.7909548 6.10900391,13.4519413 5.89302734,13.6849388 C5.61623047,13.9695747 5.19410156,14.0570708 4.82697266,13.9059447 L4.80697266,13.8969412 L2.96699219,12.8799938 L2.94998047,12.8669475 C2.61375,12.6299072 2.49015625,12.1893993 2.65404297,11.811994 C2.65503906,11.8090254 2.82302734,11.4250579 2.82302734,11.0750343 C2.82302734,10.0130694 1.94800781,9.14717007 0.873027344,9.14717007 L0.808027344,9.14717007 L0.795976562,9.14816611 C0.48796875,9.14816611 0.236972656,8.87718196 0.157011719,8.45917305 C0.15,8.42614716 0,7.63219778 0,7.00622927 C0,6.38125682 0.15,5.58631139 0.157011719,5.55326597 C0.238046875,5.12931981 0.494003906,4.85833566 0.808027344,4.86437055 L0.873027344,4.86437055 C1.94800781,4.86437055 2.82302734,4.00038519 2.82302734,2.93742423 C2.82302734,2.5874006 2.65503906,2.20343314 2.65296875,2.19946848 C2.48955078,1.82175075 2.61451172,1.38108658 2.95197266,1.14551102 L2.97095703,1.13246472 L4.91203125,0.0785072707 L4.93300781,0.0695037613 C5.29884766,-0.0752945442 5.71578125,0.0103071517 5.99501953,0.287541026 C6.22398438,0.525499288 6.95099609,1.14351892 7.53898438,1.14351892 C8.12203125,1.14351892 8.84398437,0.537549538 9.07203125,0.303555945 C9.35386719,0.0299156624 9.77050781,-0.0519557291 10.1349609,0.0945221898 L10.1550391,0.103525699 L12.0300391,1.13351936 L12.0490234,1.14650707 C12.3860937,1.38239511 12.5106836,1.82296163 12.3470313,2.200445 C12.3449609,2.20343314 12.1769727,2.5874006 12.1769727,2.93742423 C12.1769727,3.99938914 13.0519922,4.86437055 14.1269727,4.86437055 L14.1919727,4.86437055 C14.5040039,4.85833566 14.7609766,5.13031586 14.8419922,5.55326597 C14.85,5.58631139 15,6.38125682 15,7.00622927 C15,7.63219778 14.85,8.42614716 14.8429883,8.45917305 C14.7619531,8.8831192 14.505,9.15410335 14.1929688,9.14717007 L14.1280273,9.14717007 C13.0529687,9.14717007 12.1779688,10.0120734 12.1779688,11.0750343 C12.1779688,11.4260345 12.345957,11.8090254 12.3480273,11.8129901 C12.5115234,12.1902391 12.3869336,12.6304345 12.0500195,12.8659515 L12.0300391,12.8799938 L10.1229883,13.9219596 L10.1020117,13.9299085 C9.99007813,13.9774259 9.86953125,14.0013116 9.74800781,13.9999445 Z M9.65400391,12.9869422 C9.6715625,12.9963363 9.69109375,13.0014533 9.71099609,13.0019806 L9.71396484,13.0019806 L11.4659961,12.0480383 C11.4240234,11.9509918 11.2309961,11.4830241 11.2309961,10.9920302 C11.2309961,9.52709473 12.4030273,8.32720621 13.8719922,8.25318603 C13.8929687,8.13815204 14.0080273,7.49021185 14.0080273,7.00622927 C14.0080273,6.5222467 13.8939648,5.87530256 13.8719922,5.76032715 C12.4030273,5.68425629 11.2309961,4.48436777 11.2309961,3.02042839 C11.2309961,2.52941487 11.4250195,2.06045117 11.4669727,1.96350231 L9.74197266,1.02045794 L9.73503906,1.02045794 C9.71222656,1.02045794 9.68986328,1.02633659 9.67001953,1.03748844 C9.4728125,1.23111272 9.25933594,1.40741354 9.03199219,1.56449646 C8.50097656,1.93244899 7.99796875,2.11843689 7.53898437,2.11843689 C7.07398437,2.11843689 6.56798828,1.92848433 6.03302734,1.55350085 C5.80429687,1.39284387 5.58982422,1.21287134 5.39199219,1.01551675 C5.37162109,1.00491175 5.34896484,0.999404182 5.32599609,0.999482303 L5.31998047,0.999482303 L3.53400391,1.96447883 C3.57697266,2.06244327 3.76998047,2.53140697 3.76998047,3.02042839 C3.76998047,4.48436777 2.59804687,5.68425629 1.12900391,5.76032715 C1.10703125,5.87530256 0.99296875,6.52125065 0.99296875,7.00622927 C0.99296875,7.4912079 1.10800781,8.13715599 1.12900391,8.25220951 C2.59804687,8.32720621 3.76998047,9.52709473 3.76998047,10.9920302 C3.76998047,11.4830241 3.57498047,11.9550346 3.53400391,12.0500304 L5.22400391,12.9800089 L5.22796875,12.9800089 C5.2475,12.9796965 5.26664062,12.9749701 5.28396484,12.9659666 C5.31601562,12.9330188 5.56800781,12.668968 5.93101562,12.4069873 C6.47300781,12.0150124 6.98798828,11.8170329 7.46101562,11.8170329 C7.93998047,11.8170329 8.45902344,12.0190552 9.00398437,12.4179829 C9.36896484,12.6859789 9.62302734,12.9529984 9.65400391,12.9869422 Z M7.49800781,9.50115837 C6.11800781,9.50115837 4.99496094,8.38120773 4.99496094,7.00423717 C4.99496094,5.62726661 6.11800781,4.50831202 7.49800781,4.50831202 C8.87900391,4.50831202 10.0019922,5.62726661 10.0019922,7.00423717 C10.0019922,8.38120773 8.87900391,9.50115837 7.49800781,9.50115837 Z M7.49800781,5.5052798 C6.69646484,5.5411376 6.06505859,6.20144052 6.06505859,7.00370985 C6.06505859,7.8060573 6.69646484,8.46628211 7.49800781,8.50219849 C8.31054688,8.48114473 8.95828125,7.81650606 8.95828125,7.00370985 C8.95828125,6.19099177 8.31054688,5.52625544 7.49800781,5.5052798 Z" id="配置"></path>
            </g>
        </g>
    </g>
</svg>